<svg width="373" height="296" viewBox="0 0 373 296" fill="none" xmlns="http://www.w3.org/2000/svg">
<path d="M1 216.848C10.8638 180.35 49.9578 150.658 85.9198 144.517C130.062 136.98 176.808 174.973 216.842 145.472C225.908 138.792 232.287 129.959 238.247 121.019" stroke="#FF9900" stroke-width="2" stroke-linecap="round"/>
<path d="M238.247 121.019C271.454 135.033 306.938 145.981 341.241 156.996C347.173 158.901 353.5 160.392 359.196 162.886" stroke="#FF9900" stroke-width="2" stroke-linecap="round"/>
<path d="M14.9561 220.57C55.4393 240.108 106.344 266.025 142.418 284.766" stroke="#FF9900" stroke-width="2" stroke-linecap="round"/>
<path d="M118.228 295C126.261 256.18 174.807 244.101 193.631 244.02C234.758 243.845 282.894 250.858 320.887 231.403C342.835 220.165 358.378 201.246 371.291 180.563" stroke="#FF9900" stroke-width="2" stroke-linecap="round"/>
<path d="M248.411 134.044C248.411 134.954 247.934 135.846 247.03 136.541C246.125 137.237 244.832 137.696 243.364 137.696C241.895 137.696 240.602 137.237 239.697 136.541C238.793 135.846 238.316 134.954 238.316 134.044C238.316 133.134 238.793 132.243 239.697 131.547C240.602 130.851 241.895 130.392 243.364 130.392C244.832 130.392 246.125 130.851 247.03 131.547C247.934 132.243 248.411 133.134 248.411 134.044Z" stroke="#FF9900" stroke-width="2"/>
<path d="M356.336 173.12C356.336 174.03 355.859 174.922 354.955 175.617C354.05 176.313 352.757 176.772 351.289 176.772C349.82 176.772 348.527 176.313 347.622 175.617C346.718 174.922 346.241 174.03 346.241 173.12C346.241 172.21 346.718 171.319 347.622 170.624C348.527 169.927 349.82 169.469 351.289 169.469C352.757 169.469 354.05 169.927 354.955 170.624C355.859 171.319 356.336 172.21 356.336 173.12Z" stroke="#FF9900" stroke-width="2"/>
<path d="M131.184 257.32C131.184 259.382 128.954 261.437 125.671 261.437C122.388 261.437 120.158 259.382 120.158 257.32C120.158 255.257 122.388 253.203 125.671 253.203C128.954 253.203 131.184 255.257 131.184 257.32Z" stroke="#FF9900" stroke-width="2"/>
<path d="M26.051 206.614C26.051 207.524 25.574 208.415 24.67 209.111C23.765 209.807 22.472 210.266 21.0035 210.266C19.535 210.266 18.242 209.807 17.337 209.111C16.4331 208.415 15.9561 207.524 15.9561 206.614C15.9561 205.704 16.4331 204.812 17.337 204.117C18.242 203.421 19.535 202.962 21.0035 202.962C22.472 202.962 23.765 203.421 24.67 204.117C25.574 204.812 26.051 205.704 26.051 206.614Z" stroke="#FF9900" stroke-width="2"/>
<path d="M217.778 201.032C237.03 180.244 251.407 155.375 267.381 132.057C293.8 93.4913 321.907 56.223 347.101 16.8164" stroke="#FF9900" stroke-width="2" stroke-linecap="round"/>
<path d="M212.799 179.086C191.102 177.482 169.404 180.689 155.698 192.935C142.082 206.34 178.032 216.75 186.325 217.918C252.577 228.383 320.993 187.942 247.354 182.292" stroke="#FF9900" stroke-width="2" stroke-linecap="round"/>
<path d="M218.222 201.032C226.834 179.47 234.523 152.523 226.485 129.662C222.59 118.584 216.157 109.294 204.935 105.037C195.328 101.393 183.244 102.772 175.635 110.047C161.551 123.511 180.294 126.344 190.084 114.789C195.509 108.385 199.03 98.085 194.997 90.0968C189.765 79.7335 174.909 75.6267 164.312 77.6166C153.941 79.5641 138.015 86.7504 135.258 98.1038C134.143 102.694 138.112 102.968 141.667 102.756C149.012 102.317 155.26 97.3054 160.404 92.4676C171.598 81.9404 185.293 57.0731 171.793 43.5533C151.742 23.4716 115.045 43.7218 98.8334 60.1265C94.4303 64.5822 86.0783 74.8339 88.7391 81.8661C90.7281 87.1228 100.145 86.4546 104.148 84.9079C122.529 77.8076 141.187 53.4529 145.285 34.7635C147.152 26.2502 147.928 18.3608 142.65 11.1004C133.855 -0.996196 106.471 1.23375 94.8135 4.56954C49.7914 17.4523 42.9577 33.1532 31.7021 41.205" stroke="#FF9900" stroke-width="2" stroke-linecap="round"/>
<path d="M43.8654 5.49268C44.0334 14.1912 42.0411 22.974 37.7354 30.5327C36.043 33.5036 33.8905 37.4082 30.5322 41.7937C29.664 42.9275 34.1512 39.8556 34.8429 39.3555C39.7262 35.8244 45.9362 33.6451 51.6533 31.9071C58.3907 29.859 66.0276 27.872 73.1002 28.6317" stroke="#FF9900" stroke-width="2" stroke-linecap="round"/>
</svg>
