<svg width="79" height="79" viewBox="0 0 79 79" fill="none" xmlns="http://www.w3.org/2000/svg">
<g clip-path="url(#clip0_149_532)">
<path d="M33.3463 48.2797C29.386 46.8477 26.5429 43.06 26.5429 38.6107C26.5429 34.1613 29.386 30.3736 33.3463 28.9416C34.3276 27.8453 35.4735 26.8991 36.7457 26.1416C35.985 26.1464 35.2082 26.2215 34.4203 26.3749C29.0344 27.4265 24.9095 31.9894 24.4157 37.4536C23.7492 44.8164 29.5283 51.0238 36.7425 51.0749C35.4719 50.3174 34.3276 49.3729 33.3463 48.2781V48.2797Z" fill="black"/>
<path d="M39.3313 78.9999L37.4854 73.0754L39.2306 67.4754L37.586 62.2045L39.6685 61.5557L41.5144 67.4754L39.7692 73.0754L41.4121 78.351L39.3313 78.9999Z" fill="black"/>
<path d="M39.6685 17.4346L37.586 16.7858L39.2306 11.5149L37.4854 5.91968L39.3313 0L41.4121 0.648864L39.7692 5.91968L41.5144 11.5149L39.6685 17.4346Z" fill="black"/>
<path d="M11.5245 41.5144L5.92448 39.7692L0.648864 41.4121L0 39.3313L5.92448 37.4854L11.5245 39.2306L16.7969 37.586L17.4458 39.6685L11.5245 41.5144Z" fill="black"/>
<path d="M67.4851 41.5144L61.5654 39.6685L62.2143 37.586L67.4851 39.2306L73.0804 37.4854L79.0001 39.3313L78.3512 41.4121L73.0804 39.7692L67.4851 41.5144Z" fill="black"/>
<path d="M6.80939 60.5824L5.20801 59.1041L9.41603 54.5428L15.1375 53.2547L18.8821 49.1953L20.4835 50.6736L16.2802 55.2317L10.5571 56.5214L6.80939 60.5824Z" fill="black"/>
<path d="M58.6933 28.6141L58.2139 26.4869L63.5998 25.2739L67.5729 20.9668L73.6236 19.6035L74.103 21.7307L68.7156 22.9437L64.7425 27.2524L58.6933 28.6141Z" fill="black"/>
<path d="M21.7307 74.1034L19.6035 73.6239L20.9684 67.57L25.2787 63.5921L26.4917 58.2046L28.6189 58.684L27.2572 64.7348L22.9469 68.7127L21.7307 74.1034Z" fill="black"/>
<path d="M50.6785 20.4761L49.2002 18.8731L53.258 15.1302L54.5461 9.41186L59.1042 5.20703L60.5825 6.81001L56.5231 10.5546L55.2365 16.2713L50.6785 20.4761Z" fill="black"/>
<path d="M73.6234 59.3967L67.5695 58.0319L63.5916 53.7216L58.2041 52.5085L58.6836 50.3813L64.7343 51.743L68.7122 56.0549L74.1029 57.2695L73.6234 59.3967Z" fill="black"/>
<path d="M18.8731 29.7998L15.1302 25.7404L9.41186 24.4538L5.20703 19.8958L6.81001 18.4175L10.5546 22.4769L16.2713 23.7634L20.4761 28.3214L18.8731 29.7998Z" fill="black"/>
<path d="M59.1041 73.7932L54.5428 69.5836L53.2531 63.862L49.1953 60.1175L50.6736 58.5161L55.2317 62.7193L56.5214 68.4425L60.5824 72.1902L59.1041 73.7932Z" fill="black"/>
<path d="M26.4853 20.7862L25.2739 15.4003L20.9652 11.4256L19.6035 5.37643L21.7307 4.89697L22.9437 10.2845L27.2524 14.2576L28.6141 20.3067L26.4853 20.7862Z" fill="black"/>
<path d="M45.595 51.0797C38.7196 51.0797 33.126 45.4861 33.126 38.6107C33.126 31.7353 38.7196 26.1416 45.595 26.1416C52.4704 26.1416 58.0641 31.7353 58.0641 38.6107C58.0641 45.4861 52.4704 51.0797 45.595 51.0797ZM45.595 28.3231C39.9215 28.3231 35.3075 32.9387 35.3075 38.6107C35.3075 44.2826 39.9231 48.8982 45.595 48.8982C51.267 48.8982 55.8826 44.2826 55.8826 38.6107C55.8826 32.9387 51.267 28.3231 45.595 28.3231Z" fill="black"/>
</g>
<defs>
<clipPath id="clip0_149_532">
<rect width="79" height="79" fill="white"/>
</clipPath>
</defs>
</svg>
