<svg width="544" height="523" viewBox="0 0 544 523" fill="none" xmlns="http://www.w3.org/2000/svg">
<g filter="url(#filter0_f_601_118)">
<path d="M503 238.5C503 347.576 399.578 436 272 436C144.422 436 41 347.576 41 238.5C41 129.424 144.422 41 272 41C399.578 41 503 129.424 503 238.5Z" fill="url(#paint0_radial_601_118)"/>
</g>
<path d="M445.483 197.297L94.4834 253.028V481.136L122.382 510.297H177.53L445.483 442.254V274.413V197.297Z" fill="#FFC700"/>
<path d="M126.128 239.316C213.568 220.989 309.732 208.713 397.771 193.612" stroke="black" stroke-width="3"/>
<path d="M192.51 196.883C149.441 215.589 114.615 229.343 102.869 234.418C81.3352 243.722 89.0316 249.019 92.2503 250.458C97.4003 252.76 113.064 249.756 125.997 247.74C166.281 241.46 341.454 208.329 446.341 196.381" stroke="black" stroke-width="3"/>
<path d="M143.255 259.1C182.504 252.982 326.319 223.812 431.657 211.142C431.657 211.142 432.704 263.021 434 287" stroke="black" stroke-width="3" stroke-linecap="square" stroke-dasharray="6 6"/>
<path d="M88.4131 247.158C92.7042 325.854 94.6485 378.349 99.8332 467.786" stroke="black" stroke-width="3"/>
<path d="M444.408 195.631C444.167 241.259 443.395 261.081 445.416 298.058" stroke="black" stroke-width="3"/>
<path d="M431.404 452.73C342.275 474.036 258.839 499.601 170.871 515.782C154.581 518.779 128.193 521.664 117.509 506.206" stroke="black" stroke-width="3"/>
<path d="M427.256 435.725C338.127 457.031 263.512 482.257 175.544 498.439C129.133 506.976 109 485.5 115 455" stroke="black" stroke-width="3" stroke-linecap="square" stroke-dasharray="6 6"/>
<path d="M253.614 133.123L245.466 114.574L250.97 95.6635L243.856 76.4869" stroke="black" stroke-width="3"/>
<path d="M225.081 150.038L210.124 136.374L207.503 116.854L193.237 102.196" stroke="black" stroke-width="3"/>
<path d="M205.24 176.003L185.567 171.166L173.921 155.282L154.38 149.243" stroke="black" stroke-width="3"/>
<path d="M285.251 133.456L286.763 113.253L300.499 99.1382L303.219 78.8664" stroke="black" stroke-width="3"/>
<path d="M316.036 148.732L325.38 130.756L343.563 123.189L354.045 105.626" stroke="black" stroke-width="3"/>
<path d="M210.867 206.183C213.45 171.589 243.587 145.639 278.181 148.222C303.46 150.11 324.124 166.711 332.411 189.013" stroke="black" stroke-width="3"/>
<path d="M452.687 289.301C455.1 289.339 463.705 289.322 466.215 294.657C468.725 299.993 455.176 301.331 449.714 302.237C444.168 303.157 438.57 303.934 433 304.877" stroke="black" stroke-width="3"/>
<path d="M466.5 302C466.5 321 465 330 461 349.5C460.692 351 459.531 354.716 458.5 356C452.72 363.199 425.958 365.948 416.892 365.808C415.419 365.785 415.142 319.536 414.5 311" stroke="black" stroke-width="3"/>
<path d="M457 346.5C450.5 354.48 436.066 354.621 427 354.48" stroke="black" stroke-width="3" stroke-dasharray="6 6"/>
<path d="M446.381 361.269C446.381 406.865 446.381 402.329 446.381 443.807" stroke="black" stroke-width="3"/>
<path d="M435 370C436.915 419.866 434.849 367.997 436.739 417.215" stroke="black" stroke-width="3" stroke-dasharray="6 6"/>
<path d="M450.183 326.532C448.826 318.149 435.417 316.375 432.122 327.364C430.051 334.271 436.108 338.693 439.605 339.397" stroke="black" stroke-width="3"/>
<path d="M344.813 141.147C351.333 138.655 378.746 126.095 378.746 126.095C378.46 144.53 378.746 168.815 378.746 174" stroke="black" stroke-width="3"/>
<path d="M139.277 13.3192L124.665 55.4662" stroke="white" stroke-width="2"/>
<path d="M109.769 26.2809L151.916 40.8933" stroke="white" stroke-width="2"/>
<path d="M141.447 52.8159L121.506 12.9132" stroke="white" stroke-width="2"/>
<path d="M153 27.1424L111.011 42.2034" stroke="white" stroke-width="2"/>
<path d="M35.5088 322.406L20.8964 364.553" stroke="white" stroke-width="2"/>
<path d="M6 335.368L48.147 349.98" stroke="white" stroke-width="2"/>
<path d="M37.6787 361.903L17.7371 322" stroke="white" stroke-width="2"/>
<path d="M49.2314 336.229L7.24266 351.29" stroke="white" stroke-width="2"/>
<path d="M355.509 357.406L340.896 399.553" stroke="white" stroke-width="2"/>
<path d="M326 370.368L368.147 384.98" stroke="white" stroke-width="2"/>
<path d="M357.679 396.903L337.737 357" stroke="white" stroke-width="2"/>
<path d="M369.231 371.229L327.243 386.29" stroke="white" stroke-width="2"/>
<path d="M471.969 105.178L465.547 123.702" stroke="white" stroke-width="2"/>
<path d="M459 110.875L477.523 117.297" stroke="white" stroke-width="2"/>
<path d="M472.923 122.537L464.159 105" stroke="white" stroke-width="2"/>
<path d="M478 111.254L459.546 117.873" stroke="white" stroke-width="2"/>
<path d="M202.334 305.197L195.236 325.67" stroke="white" stroke-width="2"/>
<path d="M188 311.493L208.473 318.591" stroke="white" stroke-width="2"/>
<path d="M203.389 324.383L193.702 305" stroke="white" stroke-width="2"/>
<path d="M209 311.912L188.604 319.228" stroke="white" stroke-width="2"/>
<path d="M529.985 166.385L516.127 206.356" stroke="white" stroke-width="2"/>
<path d="M502 178.678L541.971 192.536" stroke="white" stroke-width="2"/>
<path d="M532.045 203.843L513.133 166" stroke="white" stroke-width="2"/>
<path d="M543 179.495L503.179 193.778" stroke="white" stroke-width="2"/>
<defs>
<filter id="filter0_f_601_118" x="0" y="0" width="544" height="477" filterUnits="userSpaceOnUse" color-interpolation-filters="sRGB">
<feFlood flood-opacity="0" result="BackgroundImageFix"/>
<feBlend mode="normal" in="SourceGraphic" in2="BackgroundImageFix" result="shape"/>
<feGaussianBlur stdDeviation="20.5" result="effect1_foregroundBlur_601_118"/>
</filter>
<radialGradient id="paint0_radial_601_118" cx="0" cy="0" r="1" gradientUnits="userSpaceOnUse" gradientTransform="translate(256.701 224.002) rotate(85.8723) scale(212.55 215.956)">
<stop stop-color="#FF3002" stop-opacity="0.94"/>
<stop offset="1" stop-color="#FFC700" stop-opacity="0"/>
</radialGradient>
</defs>
</svg>
