<svg width="369" height="96" viewBox="0 0 369 96" fill="none" xmlns="http://www.w3.org/2000/svg">
<g clip-path="url(#clip0_504_118)">
<path d="M40.5216 58.669C35.7091 56.9288 32.2541 52.326 32.2541 46.9192C32.2541 41.5124 35.7091 36.9096 40.5216 35.1695C41.714 33.8372 43.1065 32.6875 44.6524 31.767C43.728 31.7728 42.7841 31.8641 41.8267 32.0505C35.2818 33.3284 30.2692 38.8731 29.6691 45.5132C28.8593 54.4604 35.8819 62.0035 44.6486 62.0657C43.1046 61.1451 41.714 59.9973 40.5216 58.667V58.669Z" fill="black"/>
<path d="M47.7949 96L45.5518 88.8006L47.6725 81.9955L45.6741 75.5904L48.2047 74.8019L50.4478 81.9955L48.327 88.8006L50.3235 95.2115L47.7949 96Z" fill="black"/>
<path d="M48.2047 21.1864L45.6741 20.3979L47.6725 13.9928L45.5518 7.19354L47.7949 0L50.3235 0.788493L48.327 7.19354L50.4478 13.9928L48.2047 21.1864Z" fill="black"/>
<path d="M14.0045 50.448L7.19937 48.3273L0.788493 50.3237L0 47.7951L7.19937 45.552L14.0045 47.6728L20.4115 45.6744L21.2 48.2049L14.0045 50.448Z" fill="black"/>
<path d="M82.007 50.448L74.8135 48.2049L75.602 45.6744L82.007 47.6728L88.8063 45.552L95.9999 47.7951L95.2114 50.3237L88.8063 48.3273L82.007 50.448Z" fill="black"/>
<path d="M8.27509 73.6193L6.3291 71.8228L11.4427 66.2801L18.3954 64.7147L22.9457 59.7818L24.8917 61.5782L19.784 67.1171L12.8293 68.6844L8.27509 73.6193Z" fill="black"/>
<path d="M71.3238 34.7714L70.7412 32.1865L77.2861 30.7124L82.1142 25.4785L89.467 23.8218L90.0496 26.4068L83.5028 27.8808L78.6747 33.1167L71.3238 34.7714Z" fill="black"/>
<path d="M26.4072 90.0494L23.8223 89.4668L25.4808 82.1101L30.7187 77.2762L32.1927 70.7294L34.7777 71.312L33.123 78.6648L27.8851 83.4987L26.4072 90.0494Z" fill="black"/>
<path d="M61.5845 24.8822L59.7881 22.9343L64.7191 18.3859L66.2844 11.4371L71.8233 6.32739L73.6197 8.27532L68.6868 12.8257L67.1234 19.7726L61.5845 24.8822Z" fill="black"/>
<path d="M89.4669 72.1782L82.1102 70.5197L77.2763 65.2818L70.7295 63.8078L71.3121 61.2228L78.6649 62.8775L83.4988 68.1173L90.0495 69.5933L89.4669 72.1782Z" fill="black"/>
<path d="M22.9341 36.2124L18.3857 31.2795L11.4368 29.7161L6.32715 24.1772L8.27508 22.3808L12.8254 27.3137L19.7723 28.8771L24.882 34.416L22.9341 36.2124Z" fill="black"/>
<path d="M71.8233 89.6726L66.2805 84.5571L64.7132 77.6044L59.7822 73.0541L61.5787 71.1081L67.1175 76.2158L68.6848 83.1705L73.6197 87.7247L71.8233 89.6726Z" fill="black"/>
<path d="M32.185 25.259L30.7128 18.7141L25.4769 13.8841L23.8223 6.53325L26.4072 5.95062L27.8813 12.4974L33.1172 17.3255L34.7718 24.6764L32.185 25.259Z" fill="black"/>
<path d="M55.4062 62.0715C47.0513 62.0715 40.2539 55.2742 40.2539 46.9192C40.2539 38.5643 47.0513 31.767 55.4062 31.767C63.7611 31.767 70.5585 38.5643 70.5585 46.9192C70.5585 55.2742 63.7611 62.0715 55.4062 62.0715ZM55.4062 34.4179C48.5117 34.4179 42.9049 40.0267 42.9049 46.9192C42.9049 53.8118 48.5137 59.4205 55.4062 59.4205C62.2987 59.4205 67.9075 53.8118 67.9075 46.9192C67.9075 40.0267 62.2987 34.4179 55.4062 34.4179Z" fill="black"/>
</g>
<path d="M142.952 59.448C141.266 59.448 139.773 59.1493 138.472 58.552C137.17 57.9546 136.146 57.08 135.4 55.928C134.674 54.7546 134.312 53.336 134.312 51.672V50.872H137.736V51.672C137.736 53.2506 138.205 54.4346 139.144 55.224C140.104 56.0133 141.373 56.408 142.952 56.408C144.552 56.408 145.757 56.0773 146.568 55.416C147.378 54.7333 147.784 53.8586 147.784 52.792C147.784 52.088 147.592 51.512 147.208 51.064C146.824 50.616 146.28 50.264 145.576 50.008C144.872 49.7306 144.029 49.4746 143.048 49.24L141.864 48.952C140.434 48.6106 139.186 48.1946 138.12 47.704C137.074 47.192 136.264 46.52 135.688 45.688C135.112 44.856 134.824 43.7893 134.824 42.488C134.824 41.1653 135.144 40.0346 135.784 39.096C136.445 38.1573 137.352 37.432 138.504 36.92C139.656 36.408 141.01 36.152 142.568 36.152C144.125 36.152 145.512 36.4186 146.728 36.952C147.965 37.4853 148.936 38.2746 149.64 39.32C150.344 40.3653 150.696 41.6773 150.696 43.256V44.408H147.272V43.256C147.272 42.296 147.069 41.5173 146.664 40.92C146.28 40.3226 145.736 39.8853 145.032 39.608C144.328 39.3306 143.506 39.192 142.568 39.192C141.202 39.192 140.136 39.48 139.368 40.056C138.621 40.6106 138.248 41.3893 138.248 42.392C138.248 43.0746 138.408 43.64 138.728 44.088C139.069 44.5146 139.56 44.8666 140.2 45.144C140.84 45.4213 141.64 45.6666 142.6 45.88L143.784 46.168C145.234 46.488 146.514 46.904 147.624 47.416C148.733 47.9066 149.608 48.5786 150.248 49.432C150.888 50.2853 151.208 51.384 151.208 52.728C151.208 54.072 150.866 55.2453 150.184 56.248C149.522 57.2506 148.573 58.04 147.336 58.616C146.098 59.1706 144.637 59.448 142.952 59.448Z" fill="#333333"/>
<path d="M154.932 59V43.224H158.228V59H154.932ZM156.596 41.08C155.956 41.08 155.412 40.8773 154.964 40.472C154.537 40.0453 154.324 39.5013 154.324 38.84C154.324 38.1786 154.537 37.6453 154.964 37.24C155.412 36.8133 155.956 36.6 156.596 36.6C157.257 36.6 157.801 36.8133 158.228 37.24C158.654 37.6453 158.868 38.1786 158.868 38.84C158.868 39.5013 158.654 40.0453 158.228 40.472C157.801 40.8773 157.257 41.08 156.596 41.08Z" fill="#333333"/>
<path d="M163.119 59V36.6H166.415V59H163.119Z" fill="#333333"/>
<path d="M177.227 59C176.267 59 175.499 58.712 174.923 58.136C174.368 57.56 174.091 56.792 174.091 55.832V46.008H169.739V43.224H174.091V38.008H177.387V43.224H182.091V46.008H177.387V55.256C177.387 55.896 177.685 56.216 178.283 56.216H181.579V59H177.227Z" fill="#333333"/>
<path d="M192.011 59.288C190.816 59.288 189.749 59.0213 188.811 58.488C187.872 57.9546 187.136 57.1973 186.603 56.216C186.069 55.2346 185.803 54.0613 185.803 52.696V43.224H189.099V52.472C189.099 53.8373 189.44 54.8506 190.123 55.512C190.805 56.152 191.755 56.472 192.971 56.472C194.315 56.472 195.392 56.024 196.203 55.128C197.035 54.2106 197.451 52.8986 197.451 51.192V43.224H200.747V59H197.515V56.632H197.003C196.704 57.272 196.171 57.88 195.403 58.456C194.635 59.0106 193.504 59.288 192.011 59.288Z" fill="#333333"/>
<path d="M205.619 59V43.224H208.851V45.08H209.363C209.662 44.5253 210.142 44.0346 210.803 43.608C211.464 43.1813 212.36 42.968 213.491 42.968C214.664 42.968 215.603 43.2133 216.307 43.704C217.032 44.1733 217.576 44.7813 217.939 45.528H218.451C218.814 44.8026 219.336 44.1946 220.019 43.704C220.723 43.2133 221.715 42.968 222.995 42.968C224.019 42.968 224.926 43.1813 225.715 43.608C226.504 44.0133 227.134 44.632 227.603 45.464C228.072 46.2746 228.307 47.288 228.307 48.504V59H225.011V48.76C225.011 47.8 224.744 47.064 224.211 46.552C223.699 46.0186 222.963 45.752 222.003 45.752C220.979 45.752 220.158 46.0826 219.539 46.744C218.92 47.4053 218.611 48.3546 218.611 49.592V59H215.315V48.76C215.315 47.8 215.048 47.064 214.515 46.552C214.003 46.0186 213.267 45.752 212.307 45.752C211.283 45.752 210.462 46.0826 209.843 46.744C209.224 47.4053 208.915 48.3546 208.915 49.592V59H205.619Z" fill="#333333"/>
<path d="M237.953 59.448C236.822 59.448 235.809 59.256 234.913 58.872C234.038 58.488 233.334 57.9226 232.801 57.176C232.289 56.4293 232.033 55.5226 232.033 54.456C232.033 53.368 232.289 52.472 232.801 51.768C233.334 51.0426 234.049 50.4986 234.945 50.136C235.862 49.7733 236.897 49.592 238.049 49.592H242.849V48.568C242.849 47.6506 242.571 46.9146 242.017 46.36C241.462 45.8053 240.609 45.528 239.457 45.528C238.326 45.528 237.462 45.7946 236.865 46.328C236.267 46.8613 235.873 47.5546 235.681 48.408L232.609 47.416C232.865 46.5626 233.27 45.7946 233.825 45.112C234.401 44.408 235.158 43.8426 236.097 43.416C237.035 42.9893 238.166 42.776 239.489 42.776C241.537 42.776 243.147 43.2986 244.321 44.344C245.494 45.3893 246.081 46.872 246.081 48.792V55.288C246.081 55.928 246.379 56.248 246.977 56.248H248.321V59H245.857C245.11 59 244.502 58.808 244.033 58.424C243.563 58.04 243.329 57.5173 243.329 56.856V56.76H242.849C242.678 57.08 242.422 57.4533 242.081 57.88C241.739 58.3066 241.238 58.68 240.577 59C239.915 59.2986 239.041 59.448 237.953 59.448ZM238.433 56.728C239.755 56.728 240.822 56.3546 241.633 55.608C242.443 54.84 242.849 53.7946 242.849 52.472V52.152H238.241C237.366 52.152 236.662 52.344 236.129 52.728C235.595 53.0906 235.329 53.6346 235.329 54.36C235.329 55.0853 235.606 55.6613 236.161 56.088C236.715 56.5146 237.473 56.728 238.433 56.728Z" fill="#333333"/>
<path d="M268.802 59.448C267.266 59.448 266.082 59.1706 265.25 58.616C264.439 58.0613 263.831 57.4426 263.426 56.76H262.914V59H259.682V36.6H262.978V45.368H263.49C263.746 44.9413 264.087 44.536 264.514 44.152C264.94 43.7466 265.506 43.416 266.21 43.16C266.914 42.904 267.778 42.776 268.802 42.776C270.124 42.776 271.34 43.096 272.45 43.736C273.559 44.376 274.444 45.304 275.106 46.52C275.767 47.736 276.098 49.1866 276.098 50.872V51.352C276.098 53.0586 275.756 54.52 275.074 55.736C274.412 56.9306 273.527 57.848 272.418 58.488C271.33 59.128 270.124 59.448 268.802 59.448ZM267.842 56.568C269.271 56.568 270.444 56.1093 271.362 55.192C272.3 54.2746 272.77 52.9626 272.77 51.256V50.968C272.77 49.2826 272.311 47.9813 271.394 47.064C270.476 46.1466 269.292 45.688 267.842 45.688C266.434 45.688 265.26 46.1466 264.322 47.064C263.404 47.9813 262.946 49.2826 262.946 50.968V51.256C262.946 52.9626 263.404 54.2746 264.322 55.192C265.26 56.1093 266.434 56.568 267.842 56.568Z" fill="#333333"/>
<path d="M287.574 59.448C285.995 59.448 284.587 59.128 283.35 58.488C282.134 57.8266 281.174 56.888 280.47 55.672C279.766 54.456 279.414 53.016 279.414 51.352V50.872C279.414 49.208 279.766 47.7786 280.47 46.584C281.174 45.368 282.134 44.4293 283.35 43.768C284.587 43.1066 285.995 42.776 287.574 42.776C289.152 42.776 290.56 43.1066 291.798 43.768C293.035 44.4293 294.006 45.368 294.71 46.584C295.414 47.7786 295.766 49.208 295.766 50.872V51.352C295.766 53.016 295.414 54.456 294.71 55.672C294.006 56.888 293.035 57.8266 291.798 58.488C290.56 59.128 289.152 59.448 287.574 59.448ZM287.574 56.504C289.024 56.504 290.198 56.0453 291.094 55.128C292.011 54.1893 292.47 52.8986 292.47 51.256V50.968C292.47 49.3253 292.022 48.0453 291.126 47.128C290.23 46.1893 289.046 45.72 287.574 45.72C286.144 45.72 284.971 46.1893 284.054 47.128C283.158 48.0453 282.71 49.3253 282.71 50.968V51.256C282.71 52.8986 283.158 54.1893 284.054 55.128C284.971 56.0453 286.144 56.504 287.574 56.504Z" fill="#333333"/>
<path d="M299.869 59V43.224H303.101V45.592H303.613C303.912 44.952 304.445 44.3546 305.213 43.8C305.981 43.2453 307.122 42.968 308.637 42.968C309.832 42.968 310.888 43.2346 311.805 43.768C312.744 44.3013 313.48 45.0586 314.013 46.04C314.546 47 314.813 48.1626 314.813 49.528V59H311.517V49.784C311.517 48.4186 311.176 47.416 310.493 46.776C309.81 46.1146 308.872 45.784 307.677 45.784C306.312 45.784 305.213 46.232 304.381 47.128C303.57 48.024 303.165 49.3253 303.165 51.032V59H299.869Z" fill="#333333"/>
<path d="M325.355 59.288C324.16 59.288 323.093 59.0213 322.155 58.488C321.216 57.9546 320.48 57.1973 319.947 56.216C319.413 55.2346 319.147 54.0613 319.147 52.696V43.224H322.443V52.472C322.443 53.8373 322.784 54.8506 323.467 55.512C324.149 56.152 325.099 56.472 326.315 56.472C327.659 56.472 328.736 56.024 329.547 55.128C330.379 54.2106 330.795 52.8986 330.795 51.192V43.224H334.091V59H330.859V56.632H330.347C330.048 57.272 329.515 57.88 328.747 58.456C327.979 59.0106 326.848 59.288 325.355 59.288Z" fill="#333333"/>
<path d="M345.427 59.448C343.421 59.448 341.757 59 340.435 58.104C339.112 57.208 338.301 55.8533 338.003 54.04L341.075 53.304C341.245 54.1786 341.533 54.872 341.939 55.384C342.344 55.896 342.845 56.2586 343.443 56.472C344.061 56.6853 344.723 56.792 345.427 56.792C346.472 56.792 347.272 56.5893 347.827 56.184C348.403 55.7786 348.691 55.256 348.691 54.616C348.691 53.976 348.424 53.5066 347.891 53.208C347.357 52.9093 346.568 52.664 345.523 52.472L344.435 52.28C343.368 52.088 342.397 51.8106 341.523 51.448C340.648 51.0853 339.955 50.584 339.443 49.944C338.931 49.304 338.675 48.4826 338.675 47.48C338.675 45.9866 339.229 44.8346 340.339 44.024C341.448 43.192 342.92 42.776 344.755 42.776C346.525 42.776 347.976 43.1813 349.107 43.992C350.259 44.7813 351.005 45.8586 351.347 47.224L348.275 48.088C348.083 47.128 347.677 46.456 347.059 46.072C346.44 45.6666 345.672 45.464 344.755 45.464C343.859 45.464 343.155 45.6346 342.643 45.976C342.131 46.296 341.875 46.7546 341.875 47.352C341.875 47.992 342.12 48.4613 342.611 48.76C343.123 49.0586 343.805 49.2826 344.659 49.432L345.779 49.624C346.909 49.816 347.944 50.0826 348.883 50.424C349.821 50.7653 350.557 51.256 351.091 51.896C351.645 52.536 351.923 53.3893 351.923 54.456C351.923 56.0346 351.336 57.2613 350.163 58.136C348.989 59.0106 347.411 59.448 345.427 59.448Z" fill="#333333"/>
<path d="M362.239 59.448C360.234 59.448 358.57 59 357.247 58.104C355.925 57.208 355.114 55.8533 354.815 54.04L357.887 53.304C358.058 54.1786 358.346 54.872 358.751 55.384C359.157 55.896 359.658 56.2586 360.255 56.472C360.874 56.6853 361.535 56.792 362.239 56.792C363.285 56.792 364.085 56.5893 364.639 56.184C365.215 55.7786 365.503 55.256 365.503 54.616C365.503 53.976 365.237 53.5066 364.703 53.208C364.17 52.9093 363.381 52.664 362.335 52.472L361.247 52.28C360.181 52.088 359.21 51.8106 358.335 51.448C357.461 51.0853 356.767 50.584 356.255 49.944C355.743 49.304 355.487 48.4826 355.487 47.48C355.487 45.9866 356.042 44.8346 357.151 44.024C358.261 43.192 359.733 42.776 361.567 42.776C363.338 42.776 364.789 43.1813 365.919 43.992C367.071 44.7813 367.818 45.8586 368.159 47.224L365.087 48.088C364.895 47.128 364.49 46.456 363.871 46.072C363.253 45.6666 362.485 45.464 361.567 45.464C360.671 45.464 359.967 45.6346 359.455 45.976C358.943 46.296 358.687 46.7546 358.687 47.352C358.687 47.992 358.933 48.4613 359.423 48.76C359.935 49.0586 360.618 49.2826 361.471 49.432L362.591 49.624C363.722 49.816 364.757 50.0826 365.695 50.424C366.634 50.7653 367.37 51.256 367.903 51.896C368.458 52.536 368.735 53.3893 368.735 54.456C368.735 56.0346 368.149 57.2613 366.975 58.136C365.802 59.0106 364.223 59.448 362.239 59.448Z" fill="#333333"/>
<defs>
<clipPath id="clip0_504_118">
<rect width="96" height="96" fill="white"/>
</clipPath>
</defs>
</svg>
