<svg width="452" height="278" viewBox="0 0 452 278" fill="none" xmlns="http://www.w3.org/2000/svg">
<path d="M191.733 79.8906C208.499 80.5862 221.756 98.6793 220.837 120.828C219.918 142.977 205.208 159.91 188.442 159.214C171.675 158.519 158.419 140.426 159.337 118.277C160.256 96.1279 174.966 79.195 191.733 79.8906Z" stroke="#FF9900" stroke-width="2"/>
<path d="M206.403 114.599C210.412 114.765 213.621 118.379 213.437 122.795C213.254 127.212 209.757 130.547 205.749 130.381C201.74 130.215 198.531 126.601 198.715 122.185C198.898 117.768 202.395 114.433 206.403 114.599Z" stroke="#FF9900" stroke-width="2"/>
<path d="M232.048 111.254C236.057 111.42 239.265 115.033 239.082 119.45C238.899 123.867 235.402 127.202 231.393 127.036C227.385 126.869 224.176 123.256 224.359 118.839C224.542 114.423 228.039 111.087 232.048 111.254Z" stroke="#FF9900" stroke-width="2"/>
<path d="M360.367 129.146C360.113 145.925 342.376 159.654 320.21 159.319C298.045 158.984 280.73 144.726 280.984 127.947C281.237 111.168 298.975 97.4389 321.14 97.7737C343.305 98.1086 360.62 112.367 360.367 129.146Z" stroke="#FF9900" stroke-width="2"/>
<path d="M234.141 276.594C239.059 263.115 247.76 250.291 256.811 239.243C271.075 221.833 287.674 206.363 305.498 192.662C325.455 177.322 347.886 164.456 371.404 155.435C397.103 145.578 423.836 142.355 451 139.454" stroke="#FF9900" stroke-width="2" stroke-linecap="round"/>
<path d="M97.002 199.104C138.578 187.093 180.668 177.538 222.744 167.452C239.367 163.467 255.962 159.485 272.67 155.869C279.884 154.307 287.063 152.282 294.349 151.161" stroke="#FF9900" stroke-width="2" stroke-linecap="round"/>
<path d="M369.051 195.76C364.916 207.847 362.919 221.47 362.919 234.257C362.919 239.172 361.816 249.008 366.852 252.282C376.559 258.591 381.754 247.55 384.66 239.801" stroke="#FF9900" stroke-width="2" stroke-linecap="round"/>
<path d="M383.648 195.76C379.513 207.847 377.515 221.47 377.515 234.257C377.515 239.172 376.412 249.008 381.449 252.282C391.156 258.591 396.351 247.55 399.257 239.801" stroke="#FF9900" stroke-width="2" stroke-linecap="round"/>
<path d="M399.257 195.76C395.122 207.847 393.125 221.47 393.125 234.257C393.125 239.172 392.022 249.008 397.058 252.282C406.765 258.591 411.961 247.55 414.866 239.801" stroke="#FF9900" stroke-width="2" stroke-linecap="round"/>
<path d="M415.982 195.76C411.847 207.847 409.849 221.47 409.849 234.257C409.849 239.172 408.746 249.008 413.783 252.282C423.49 258.591 428.685 247.55 431.591 239.801" stroke="#FF9900" stroke-width="2" stroke-linecap="round"/>
<path d="M402.507 111.023C384.561 129.481 370.034 151.301 362.151 176C358.704 186.803 356.994 197.776 354.006 208.674C353.005 212.326 351.505 216.357 349.422 219.576C348.05 221.696 347.226 224.67 347.316 227.195C347.456 231.099 350.919 234.043 354.564 234.225C358.455 234.42 360.214 233.086 362.647 230.044" stroke="#FF9900" stroke-width="2" stroke-linecap="round"/>
<path d="M357.623 138.479C389.121 130.535 400.415 128.156 415.531 123.837C421.76 122.058 433.502 115.459 428.144 107.121C422.931 100.567 411.141 101.824 401.385 112.138" stroke="#FF9900" stroke-width="2" stroke-linecap="round"/>
<path d="M294.906 133.601C307.614 144.127 326.644 144.12 341.456 138.061" stroke="#FF9900" stroke-width="2" stroke-linecap="round"/>
<path d="M60.3721 37.3478L34.3496 112.405" stroke="#FF9900" stroke-width="2" stroke-linecap="round"/>
<path d="M7.82227 60.4304L82.8799 86.4529" stroke="#FF9900" stroke-width="2" stroke-linecap="round"/>
<path d="M64.2363 107.686L28.7232 36.625" stroke="#FF9900" stroke-width="2" stroke-linecap="round"/>
<path d="M84.8105 61.9646L10.0347 88.786" stroke="#FF9900" stroke-width="2" stroke-linecap="round"/>
<path d="M85.6867 77.6103C79.701 78.2884 73.0294 79.4479 66.8327 80.6736C66.5009 80.82 76.9127 94.8711 77.4892 96.1722" stroke="#FF9900" stroke-width="2" stroke-linecap="round"/>
<path d="M79.3937 52.4898C75.5804 57.1532 71.6121 62.6402 68.0301 67.8431C67.8946 68.1796 85.1582 70.9745 86.4792 71.5039" stroke="#FF9900" stroke-width="2" stroke-linecap="round"/>
<path d="M48.0112 36.3168C49.7537 42.0832 52.0931 48.4379 54.4124 54.3134C54.616 54.6136 68.5083 43.4553 69.6846 42.6544" stroke="#FF9900" stroke-width="2" stroke-linecap="round"/>
<path d="M18.8048 45.1961C24.1893 47.8972 30.4113 50.5695 36.2716 52.927C36.6296 52.9856 38.0842 35.2264 38.3119 33.8217" stroke="#FF9900" stroke-width="2" stroke-linecap="round"/>
<path d="M7.46174 72.4138C13.2945 70.9078 19.7392 68.8294 25.7044 66.7517C26.0126 66.5605 15.4301 52.2248 14.6778 51.0168" stroke="#FF9900" stroke-width="2" stroke-linecap="round"/>
<path d="M46.1227 112.81C44.4517 107.022 42.1911 100.639 39.9447 94.7353C39.7448 94.4326 25.7156 105.418 24.5294 106.204" stroke="#FF9900" stroke-width="2" stroke-linecap="round"/>
<path d="M17.8816 98.4572C21.2958 93.4941 24.7964 87.6975 27.9355 82.216C28.0427 81.8695 10.651 77.9923 9.29077 77.5741" stroke="#FF9900" stroke-width="2" stroke-linecap="round"/>
<path d="M73.2882 100.221C67.863 97.6028 61.6009 95.026 55.7052 92.7584C55.3464 92.7053 54.1636 110.485 53.9574 111.893" stroke="#FF9900" stroke-width="2" stroke-linecap="round"/>
<path d="M145.846 2.01489L136.565 28.7835" stroke="#FF9900" stroke-width="2" stroke-linecap="round"/>
<path d="M127.104 10.2471L153.873 19.5278" stroke="#FF9900" stroke-width="2" stroke-linecap="round"/>
<path d="M147.225 27.1002L134.559 1.75701" stroke="#FF9900" stroke-width="2" stroke-linecap="round"/>
<path d="M154.562 10.7943L127.894 20.3599" stroke="#FF9900" stroke-width="2" stroke-linecap="round"/>
<path d="M270.722 32.1189L261.441 58.8875" stroke="#FF9900" stroke-width="2" stroke-linecap="round"/>
<path d="M251.98 40.3511L278.749 49.6318" stroke="#FF9900" stroke-width="2" stroke-linecap="round"/>
<path d="M272.101 57.2043L259.435 31.8611" stroke="#FF9900" stroke-width="2" stroke-linecap="round"/>
<path d="M279.438 40.8984L252.77 50.4641" stroke="#FF9900" stroke-width="2" stroke-linecap="round"/>
<path d="M184.525 136.109C194.204 141.444 204.431 143.916 215.187 139.733" stroke="#FF9900" stroke-width="2" stroke-linecap="round"/>
<path d="M212.817 121.755C215.172 121.64 217.472 121.165 219.809 120.895C221.215 120.732 222.646 120.736 224.06 120.671C225.657 120.597 227.252 120.483 228.845 120.361" stroke="#FF9900" stroke-width="2" stroke-linecap="round"/>
<path d="M172.818 113.636C172.976 111.485 173.608 106.991 176.752 107.767C179.385 108.416 181.868 110.407 184.053 111.909C189.449 115.617 193.996 120.238 199.159 124.228" stroke="#FF9900" stroke-width="2" stroke-linecap="round"/>
<path d="M332.118 125.238C333.754 124.481 335.503 123.921 337.314 124.418C338.526 124.75 339.626 125.522 340.55 126.353" stroke="#FF9900" stroke-width="2" stroke-linecap="round"/>
<path d="M298.809 120.951C300.444 120.194 302.193 119.634 304.004 120.131C305.216 120.463 306.316 121.235 307.24 122.066" stroke="#FF9900" stroke-width="2" stroke-linecap="round"/>
</svg>
