<svg width="399" height="355" viewBox="0 0 399 355" fill="none" xmlns="http://www.w3.org/2000/svg">
<path d="M145.473 289.011C128.642 294.154 114.903 290.881 112.787 283.4C112.215 281.377 112.148 279.508 112.469 277.79" stroke="#FF9900" stroke-width="2"/>
<path d="M339.506 1C295.556 88.8993 254.412 114.147 178.669 145.94C171.637 149.456 161.144 155.825 162.304 165.11C164.671 184.041 200.674 168.115 206.254 165.11" stroke="#FF9900" stroke-width="2"/>
<path d="M176.84 207.657C165.619 211.865 50.5601 274.049 72.5355 183.344" stroke="#FF9900" stroke-width="2"/>
<path d="M152.018 241.321C140.329 245.528 131.446 249.89 102.499 253.944C88.7862 255.865 82.173 251.607 80.0579 244.126C78.513 238.662 80.6474 234.324 84.1759 231.034" stroke="#FF9900" stroke-width="2"/>
<path d="M95.3976 254.412C91.8691 257.702 89.7347 262.04 91.2796 267.503C93.3947 274.984 100.008 279.243 113.721 277.322C121.784 276.193 130.404 274.347 138.927 272.166" stroke="#FF9900" stroke-width="2"/>
<path d="M115.951 39.3391C138.674 67.1374 157.741 97.4587 179.339 126.128" stroke="#FF9900" stroke-width="2"/>
<path d="M25.9268 113.212C53.6831 140.686 53.023 140.413 78.6165 169.919C89.9294 182.961 100.263 194.823 112.044 207.447" stroke="#FF9900" stroke-width="2"/>
<path d="M206.255 165.577C213.268 173.526 222.124 182.835 226.827 189.89C230.1 194.799 229.632 203.449 225.424 208.592C220.451 214.67 206.255 212.8 198.774 208.592C187.999 202.531 159.844 175.59 150.616 167.448" stroke="#FF9900" stroke-width="2"/>
<path d="M155.911 307.712C149.735 297.925 144.872 287.705 141.375 276.84C139.439 270.823 136.432 261.581 140.433 255.691C142.394 252.804 149.79 251.79 153.093 253.957C164.617 261.518 175.864 280.831 180.214 291.096C181.775 294.78 177.086 298.442 173.526 293.218C167.448 284.299 164.264 274.362 159.5 261.425C157.756 256.689 158.233 248.638 162.002 244.421C164.751 241.343 172.237 242.254 175.13 243.554C189.795 250.144 198.289 267.191 204.384 281.062C205.97 286.436 202.794 290.368 198.574 284.299C192.446 275.488 184.319 260.059 184.039 249.189C183.911 244.216 183.729 238.753 189.409 236.023C197.386 232.188 205.031 235.722 211.212 240.959C219.704 248.156 234.983 263.63 238.048 274.516C239.101 278.257 233.739 279.971 231.395 276.07C229.051 272.169 207.719 238.868 212.64 227.949C214.833 223.085 224.197 221.474 229.029 223.428C240.571 228.097 250.204 245.996 260.023 260.022C263.445 264.911 267.036 276.07 260.958 288.075" stroke="#FF9900" stroke-width="2"/>
<path d="M261.425 259.555C301.34 238.925 333.848 210.125 364.286 177.266" stroke="#FF9900" stroke-width="2"/>
<path d="M201.111 167.448C205.787 165.342 209.484 162.844 210.52 161.37C212.589 158.424 210.917 155.514 207.721 154.58C201.579 153.889 200.817 160.055 203.917 163.24C204.791 164.138 205.767 165.239 206.722 166.045" stroke="#FF9900" stroke-width="2"/>
<path d="M2.90269 206.734C2.36825 206.595 1.82211 206.915 1.68284 207.449C1.54357 207.984 1.86392 208.53 2.39836 208.669L2.90269 206.734ZM14.4562 209.987L14.341 208.994L14.4562 209.987ZM19.8979 208.117L19.4721 207.212L19.8979 208.117ZM28.067 202.013L27.3045 201.366L28.067 202.013ZM29.2489 204.221L30.2415 204.1L29.2489 204.221ZM34.2361 212.026L34.8763 211.258L34.2361 212.026ZM43.7429 217.468L43.398 218.407L43.7429 217.468ZM49.1457 218.598L48.637 217.737L49.1457 218.598ZM44.4962 222.066L45.2082 222.768L44.4962 222.066ZM39.3532 241.365L40.0791 240.677L39.3532 241.365ZM38.7428 241.222L38.0943 241.983L38.7428 241.222ZM33.5867 239.079L33.5155 240.077L33.5867 239.079ZM25.2747 239.157L25.422 240.146L25.2747 239.157ZM14.3393 245.521L14.9852 246.284L14.3393 245.521ZM13.0405 246.456L12.2035 245.909L13.0405 246.456ZM15.3783 241.729L16.3588 241.925L15.3783 241.729ZM3.76745 226.923L3.57938 227.905L3.76745 226.923ZM1.0141 226.637L0.958632 227.636L1.0141 226.637ZM2.76741 225.468L3.32211 226.3H3.32211L2.76741 225.468ZM6.1052 211.961L7.03854 211.602L6.1052 211.961ZM2.39836 208.669C3.27512 208.898 4.20308 209.179 5.18704 209.474C6.16326 209.767 7.18801 210.07 8.22449 210.331C10.2858 210.85 12.4797 211.223 14.5713 210.981L14.341 208.994C12.6129 209.194 10.7009 208.892 8.71278 208.392C7.72455 208.143 6.73871 207.851 5.76128 207.558C4.7916 207.268 3.82286 206.974 2.90269 206.734L2.39836 208.669ZM14.5713 210.981C16.6324 210.742 18.6567 209.806 20.3237 209.022L19.4721 207.212C17.7614 208.017 16.026 208.799 14.341 208.994L14.5713 210.981ZM20.3237 209.022C23.5329 207.512 26.4936 205.413 28.8296 202.66L27.3045 201.366C25.1838 203.866 22.4684 205.802 19.4721 207.212L20.3237 209.022ZM28.8296 202.66C29.5306 201.834 30.0671 200.911 30.0671 199.636H28.0671C28.0671 200.257 27.8403 200.735 27.3045 201.366L28.8296 202.66ZM30.0671 199.636C30.0671 199.635 30.0671 199.633 30.0671 199.632C30.0671 199.631 30.0671 199.629 30.0671 199.628C30.0671 199.626 30.0671 199.625 30.0671 199.623C30.0671 199.622 30.0671 199.621 30.0671 199.619C30.0671 199.618 30.0671 199.616 30.0671 199.615C30.0671 199.614 30.0671 199.612 30.0671 199.611C30.0671 199.609 30.0671 199.608 30.0671 199.607C30.0671 199.605 30.0671 199.604 30.0671 199.603C30.0671 199.601 30.0671 199.6 30.0671 199.598C30.0671 199.597 30.0671 199.596 30.0671 199.594C30.0671 199.593 30.0671 199.592 30.0671 199.59C30.0671 199.589 30.0671 199.588 30.0671 199.586C30.0671 199.585 30.0671 199.584 30.0671 199.582C30.0671 199.581 30.0671 199.58 30.0671 199.578C30.0671 199.577 30.0671 199.576 30.0671 199.574C30.0671 199.573 30.0671 199.572 30.0671 199.57C30.0671 199.569 30.0671 199.568 30.0671 199.567C30.0671 199.565 30.0671 199.564 30.0671 199.563C30.0671 199.561 30.0671 199.56 30.0671 199.559C30.0671 199.558 30.0671 199.556 30.0671 199.555C30.0671 199.554 30.0671 199.552 30.0671 199.551C30.0671 199.55 30.0671 199.549 30.0671 199.547C30.0671 199.546 30.0671 199.545 30.0671 199.544C30.0671 199.543 30.0671 199.541 30.0671 199.54C30.0671 199.539 30.0671 199.538 30.0671 199.536C30.0671 199.535 30.0671 199.534 30.0671 199.533C30.0671 199.531 30.0671 199.53 30.0671 199.529C30.0671 199.528 30.0671 199.527 30.0671 199.525C30.0671 199.524 30.0671 199.523 30.0671 199.522C30.0671 199.521 30.0671 199.519 30.0671 199.518C30.0671 199.517 30.0671 199.516 30.0671 199.515C30.0671 199.514 30.0671 199.512 30.0671 199.511C30.0671 199.51 30.0671 199.509 30.0671 199.508C30.0671 199.507 30.0671 199.505 30.0671 199.504C30.0671 199.503 30.0671 199.502 30.0671 199.501C30.0671 199.5 30.0671 199.499 30.0671 199.498C30.0671 199.496 30.0671 199.495 30.0671 199.494C30.0671 199.493 30.0671 199.492 30.0671 199.491C30.0671 199.49 30.0671 199.489 30.0671 199.487C30.0671 199.486 30.0671 199.485 30.0671 199.484C30.0671 199.483 30.0671 199.482 30.0671 199.481C30.0671 199.48 30.0671 199.479 30.0671 199.478C30.0671 199.477 30.0671 199.475 30.0671 199.474C30.0671 199.473 30.0671 199.472 30.0671 199.471C30.0671 199.47 30.0671 199.469 30.0671 199.468C30.0671 199.467 30.0671 199.466 30.0671 199.465C30.0671 199.464 30.0671 199.463 30.0671 199.462C30.0671 199.461 30.0671 199.46 30.0671 199.459C30.0671 199.458 30.0671 199.457 30.0671 199.456C30.0671 199.454 30.0671 199.453 30.0671 199.452C30.0671 199.451 30.0671 199.45 30.0671 199.449C30.0671 199.448 30.0671 199.447 30.0671 199.446C30.0671 199.445 30.0671 199.444 30.0671 199.443C30.0671 199.442 30.0671 199.441 30.0671 199.44C30.0671 199.439 30.0671 199.439 30.0671 199.438C30.0671 199.437 30.0671 199.436 30.0671 199.435C30.0671 199.434 30.0671 199.433 30.0671 199.432C30.0671 199.431 30.0671 199.43 30.0671 199.429C30.0671 199.428 30.0671 199.427 30.0671 199.426C30.0671 199.425 30.0671 199.424 30.0671 199.423C30.0671 199.422 30.0671 199.421 30.0671 199.42C30.0671 199.419 30.0671 199.419 30.0671 199.418C30.0671 199.417 30.0671 199.416 30.0671 199.415C30.0671 199.414 30.0671 199.413 30.0671 199.412C30.0671 199.411 30.0671 199.41 30.0671 199.409C30.0671 199.409 30.0671 199.408 30.0671 199.407C30.0671 199.406 30.0671 199.405 30.0671 199.404C30.0671 199.403 30.0671 199.402 30.0671 199.402C30.0671 199.401 30.0671 199.4 30.0671 199.399C30.0671 199.398 30.0671 199.397 30.0671 199.396C30.0671 199.396 30.0671 199.395 30.0671 199.394C30.0671 199.393 30.0671 199.392 30.0671 199.391C30.0671 199.39 30.0671 199.39 30.0671 199.389C30.0671 199.388 30.0671 199.387 30.0671 199.386C30.0671 199.385 30.0671 199.385 30.0671 199.384C30.0671 199.383 30.0671 199.382 30.0671 199.381C30.0671 199.381 30.0671 199.38 30.0671 199.379C30.0671 199.378 30.0671 199.377 30.0671 199.377C30.0671 199.376 30.0671 199.375 30.0671 199.374C30.0671 199.373 30.0671 199.373 30.0671 199.372C30.0671 199.371 30.0671 199.37 30.0671 199.37C30.0671 199.369 30.0671 199.368 30.0671 199.367C30.0671 199.366 30.0671 199.366 30.0671 199.365C30.0671 199.364 30.0671 199.363 30.0671 199.363C30.0671 199.362 30.0671 199.361 30.0671 199.36C30.0671 199.36 30.0671 199.359 30.0671 199.358C30.0671 199.358 30.0671 199.357 30.0671 199.356C30.0671 199.355 30.0671 199.355 30.0671 199.354C30.0671 199.353 30.0671 199.352 30.0671 199.352C30.0671 199.351 30.0671 199.35 30.0671 199.35C30.0671 199.349 30.0671 199.348 30.0671 199.348C30.0671 199.347 30.0671 199.346 30.0671 199.345C30.0671 199.345 30.0671 199.344 30.0671 199.343C30.0671 199.343 30.0671 199.342 30.0671 199.341C30.0671 199.341 30.0671 199.34 30.0671 199.339C30.0671 199.339 30.0671 199.338 30.0671 199.337C30.0671 199.337 30.0671 199.336 30.0671 199.335C30.0671 199.335 30.0671 199.334 30.0671 199.333C30.0671 199.333 30.0671 199.332 30.0671 199.332C30.0671 199.331 30.0671 199.33 30.0671 199.33C30.0671 199.329 30.0671 199.328 30.0671 199.328C30.0671 199.327 30.0671 199.326 30.0671 199.326C30.0671 199.325 30.0671 199.325 30.0671 199.324C30.0671 199.323 30.0671 199.323 30.0671 199.322C30.0671 199.322 30.0671 199.321 30.0671 199.32C30.0671 199.32 30.0671 199.319 30.0671 199.319C30.0671 199.318 30.0671 199.318 30.0671 199.317C30.0671 199.316 30.0671 199.316 30.0671 199.315C30.0671 199.315 30.0671 199.314 30.0671 199.313C30.0671 199.313 30.0671 199.312 30.0671 199.312C30.0671 199.311 30.0671 199.311 30.0671 199.31C30.0671 199.31 30.0671 199.309 30.0671 199.308C30.0671 199.308 30.0671 199.307 30.0671 199.307C30.0671 199.306 30.0671 199.306 30.0671 199.305C30.0671 199.305 30.0671 199.304 30.0671 199.304C30.0671 199.303 30.0671 199.303 30.0671 199.302C30.0671 199.302 30.0671 199.301 30.0671 199.301C30.0671 199.3 30.0671 199.3 30.0671 199.299C30.0671 199.299 30.0671 199.298 30.0671 199.298C30.0671 199.297 30.0671 199.297 30.0671 199.296C30.0671 199.296 30.0671 199.295 30.0671 199.295C30.0671 199.294 30.0671 199.294 30.0671 199.293C30.0671 199.293 30.0671 199.292 30.0671 199.292C30.0671 199.291 30.0671 199.291 30.0671 199.29C30.0671 199.29 30.0671 199.29 30.0671 199.289C30.0671 199.289 30.0671 199.288 30.0671 199.288C30.0671 199.287 30.0671 199.287 30.0671 199.286C30.0671 199.286 30.0671 199.286 30.0671 199.285C30.0671 199.285 30.0671 199.284 30.0671 199.284C30.0671 199.283 30.0671 199.283 30.0671 199.283C30.0671 199.282 30.0671 199.282 30.0671 199.281C30.0671 199.281 30.0671 199.28 30.0671 199.28C30.0671 199.28 30.0671 199.279 30.0671 199.279C30.0671 199.278 30.0671 199.278 30.0671 199.278C30.0671 199.277 30.0671 199.277 30.0671 199.276C30.0671 199.276 30.0671 199.276 30.0671 199.275C30.0671 199.275 30.0671 199.275 30.0671 199.274C30.0671 199.274 30.0671 199.273 30.0671 199.273C30.0671 199.273 30.0671 199.272 30.0671 199.272C30.0671 199.272 30.0671 199.271 30.0671 199.271C30.0671 199.271 30.0671 199.27 30.0671 199.27C30.0671 199.27 30.0671 199.269 30.0671 199.269C30.0671 199.269 30.0671 199.268 30.0671 199.268C30.0671 199.268 30.0671 199.267 30.0671 199.267C30.0671 199.267 30.0671 199.266 30.0671 199.266C30.0671 199.266 30.0671 199.265 30.0671 199.265C30.0671 199.265 30.0671 199.264 30.0671 199.264C30.0671 199.264 30.0671 199.263 30.0671 199.263C30.0671 199.263 30.0671 199.263 30.0671 199.262C30.0671 199.262 30.0671 199.262 30.0671 199.261C30.0671 199.261 30.0671 199.261 30.0671 199.261C30.0671 199.26 30.0671 199.26 30.0671 199.26C30.0671 199.259 30.0671 199.259 30.0671 199.259C30.0671 199.259 30.0671 199.258 30.0671 199.258C30.0671 199.258 30.0671 199.258 30.0671 199.257C30.0671 199.257 30.0671 199.257 30.0671 199.257C30.0671 199.256 30.0671 199.256 30.0671 199.256C30.0671 199.256 30.0671 199.255 30.0671 199.255C30.0671 199.255 30.0671 199.255 30.0671 199.254C30.0671 199.254 30.0671 199.254 30.0671 199.254C30.0671 199.253 30.0671 199.253 30.0671 199.253C30.0671 199.253 30.0671 199.253 30.0671 199.252C30.0671 199.252 30.0671 199.252 30.0671 199.252C30.0671 199.252 30.0671 199.251 30.0671 199.251C30.0671 199.251 30.0671 199.251 30.0671 199.251C30.0671 199.25 30.0671 199.25 30.0671 199.25C30.0671 199.25 30.0671 199.25 30.0671 199.249C30.0671 199.249 30.0671 199.249 30.0671 199.249C30.0671 199.249 30.0671 199.249 30.0671 199.248C30.0671 199.248 30.0671 199.248 30.0671 199.248C30.0671 199.248 30.0671 199.248 30.0671 199.247C30.0671 199.247 30.0671 199.247 30.0671 199.247C30.0671 199.247 30.0671 199.247 30.0671 199.247C30.0671 199.246 30.0671 199.246 30.0671 199.246C30.0671 199.246 30.0671 199.246 30.0671 199.246C30.0671 199.246 30.0671 199.245 30.0671 199.245C30.0671 199.245 30.0671 199.245 30.0671 199.245C30.0671 199.245 30.0671 199.245 30.0671 199.245C30.0671 199.244 30.0671 199.244 30.0671 199.244C30.0671 199.244 30.0671 199.244 30.0671 199.244C30.0671 199.244 30.0671 199.244 30.0671 199.244C30.0671 199.244 30.0671 199.243 30.0671 199.243C30.0671 199.243 30.0671 199.243 30.0671 199.243C30.0671 199.243 30.0671 199.243 30.0671 199.243C30.0671 199.243 30.0671 199.243 30.0671 199.243C30.0671 199.243 30.0671 199.242 30.0671 199.242C30.0671 199.242 30.0671 199.242 30.0671 199.242C30.0671 199.242 30.0671 199.242 30.0671 199.242C30.0671 199.242 30.0671 199.242 30.0671 199.242C30.0671 199.242 30.0671 199.242 30.0671 199.242C30.0671 199.242 30.0671 199.242 30.0671 199.242C30.0671 199.242 30.0671 199.242 30.0671 199.241C30.0671 199.241 30.0671 199.241 30.0671 199.241C30.0671 199.241 30.0671 199.241 30.0671 199.241C30.0671 199.241 30.0671 199.241 30.0671 199.241C30.0671 199.241 30.0671 199.241 30.0671 199.241C30.0671 199.241 30.0671 199.241 30.0671 199.241C30.0671 199.241 29.0671 199.241 28.0671 199.241C28.0671 199.241 28.0671 199.241 28.0671 199.241C28.0671 199.241 28.0671 199.241 28.0671 199.241C28.0671 199.241 28.0671 199.241 28.0671 199.241C28.0671 199.241 28.0671 199.241 28.0671 199.241C28.0671 199.241 28.0671 199.241 28.0671 199.241C28.0671 199.241 28.0671 199.241 28.0671 199.242C28.0671 199.242 28.0671 199.242 28.0671 199.242C28.0671 199.242 28.0671 199.242 28.0671 199.242C28.0671 199.242 28.0671 199.242 28.0671 199.242C28.0671 199.242 28.0671 199.242 28.0671 199.242C28.0671 199.242 28.0671 199.242 28.0671 199.242C28.0671 199.242 28.0671 199.242 28.0671 199.242C28.0671 199.243 28.0671 199.243 28.0671 199.243C28.0671 199.243 28.0671 199.243 28.0671 199.243C28.0671 199.243 28.0671 199.243 28.0671 199.243C28.0671 199.243 28.0671 199.243 28.0671 199.243C28.0671 199.243 28.0671 199.244 28.0671 199.244C28.0671 199.244 28.0671 199.244 28.0671 199.244C28.0671 199.244 28.0671 199.244 28.0671 199.244C28.0671 199.244 28.0671 199.244 28.0671 199.245C28.0671 199.245 28.0671 199.245 28.0671 199.245C28.0671 199.245 28.0671 199.245 28.0671 199.245C28.0671 199.245 28.0671 199.245 28.0671 199.246C28.0671 199.246 28.0671 199.246 28.0671 199.246C28.0671 199.246 28.0671 199.246 28.0671 199.246C28.0671 199.247 28.0671 199.247 28.0671 199.247C28.0671 199.247 28.0671 199.247 28.0671 199.247C28.0671 199.247 28.0671 199.248 28.0671 199.248C28.0671 199.248 28.0671 199.248 28.0671 199.248C28.0671 199.248 28.0671 199.248 28.0671 199.249C28.0671 199.249 28.0671 199.249 28.0671 199.249C28.0671 199.249 28.0671 199.249 28.0671 199.25C28.0671 199.25 28.0671 199.25 28.0671 199.25C28.0671 199.25 28.0671 199.251 28.0671 199.251C28.0671 199.251 28.0671 199.251 28.0671 199.251C28.0671 199.251 28.0671 199.252 28.0671 199.252C28.0671 199.252 28.0671 199.252 28.0671 199.252C28.0671 199.253 28.0671 199.253 28.0671 199.253C28.0671 199.253 28.0671 199.253 28.0671 199.254C28.0671 199.254 28.0671 199.254 28.0671 199.254C28.0671 199.254 28.0671 199.255 28.0671 199.255C28.0671 199.255 28.0671 199.255 28.0671 199.256C28.0671 199.256 28.0671 199.256 28.0671 199.256C28.0671 199.256 28.0671 199.257 28.0671 199.257C28.0671 199.257 28.0671 199.257 28.0671 199.258C28.0671 199.258 28.0671 199.258 28.0671 199.258C28.0671 199.259 28.0671 199.259 28.0671 199.259C28.0671 199.259 28.0671 199.26 28.0671 199.26C28.0671 199.26 28.0671 199.26 28.0671 199.261C28.0671 199.261 28.0671 199.261 28.0671 199.261C28.0671 199.262 28.0671 199.262 28.0671 199.262C28.0671 199.262 28.0671 199.263 28.0671 199.263C28.0671 199.263 28.0671 199.263 28.0671 199.264C28.0671 199.264 28.0671 199.264 28.0671 199.265C28.0671 199.265 28.0671 199.265 28.0671 199.265C28.0671 199.266 28.0671 199.266 28.0671 199.266C28.0671 199.267 28.0671 199.267 28.0671 199.267C28.0671 199.267 28.0671 199.268 28.0671 199.268C28.0671 199.268 28.0671 199.269 28.0671 199.269C28.0671 199.269 28.0671 199.269 28.0671 199.27C28.0671 199.27 28.0671 199.27 28.0671 199.271C28.0671 199.271 28.0671 199.271 28.0671 199.272C28.0671 199.272 28.0671 199.272 28.0671 199.273C28.0671 199.273 28.0671 199.273 28.0671 199.274C28.0671 199.274 28.0671 199.274 28.0671 199.275C28.0671 199.275 28.0671 199.275 28.0671 199.276C28.0671 199.276 28.0671 199.276 28.0671 199.277C28.0671 199.277 28.0671 199.277 28.0671 199.278C28.0671 199.278 28.0671 199.278 28.0671 199.279C28.0671 199.279 28.0671 199.279 28.0671 199.28C28.0671 199.28 28.0671 199.28 28.0671 199.281C28.0671 199.281 28.0671 199.281 28.0671 199.282C28.0671 199.282 28.0671 199.282 28.0671 199.283C28.0671 199.283 28.0671 199.284 28.0671 199.284C28.0671 199.284 28.0671 199.285 28.0671 199.285C28.0671 199.285 28.0671 199.286 28.0671 199.286C28.0671 199.287 28.0671 199.287 28.0671 199.287C28.0671 199.288 28.0671 199.288 28.0671 199.288C28.0671 199.289 28.0671 199.289 28.0671 199.29C28.0671 199.29 28.0671 199.29 28.0671 199.291C28.0671 199.291 28.0671 199.292 28.0671 199.292C28.0671 199.292 28.0671 199.293 28.0671 199.293C28.0671 199.294 28.0671 199.294 28.0671 199.294C28.0671 199.295 28.0671 199.295 28.0671 199.296C28.0671 199.296 28.0671 199.296 28.0671 199.297C28.0671 199.297 28.0671 199.298 28.0671 199.298C28.0671 199.299 28.0671 199.299 28.0671 199.299C28.0671 199.3 28.0671 199.3 28.0671 199.301C28.0671 199.301 28.0671 199.302 28.0671 199.302C28.0671 199.302 28.0671 199.303 28.0671 199.303C28.0671 199.304 28.0671 199.304 28.0671 199.305C28.0671 199.305 28.0671 199.305 28.0671 199.306C28.0671 199.306 28.0671 199.307 28.0671 199.307C28.0671 199.308 28.0671 199.308 28.0671 199.309C28.0671 199.309 28.0671 199.31 28.0671 199.31C28.0671 199.31 28.0671 199.311 28.0671 199.311C28.0671 199.312 28.0671 199.312 28.0671 199.313C28.0671 199.313 28.0671 199.314 28.0671 199.314C28.0671 199.315 28.0671 199.315 28.0671 199.316C28.0671 199.316 28.0671 199.316 28.0671 199.317C28.0671 199.317 28.0671 199.318 28.0671 199.318C28.0671 199.319 28.0671 199.319 28.0671 199.32C28.0671 199.32 28.0671 199.321 28.0671 199.321C28.0671 199.322 28.0671 199.322 28.0671 199.323C28.0671 199.323 28.0671 199.324 28.0671 199.324C28.0671 199.325 28.0671 199.325 28.0671 199.326C28.0671 199.326 28.0671 199.327 28.0671 199.327C28.0671 199.328 28.0671 199.328 28.0671 199.329C28.0671 199.329 28.0671 199.33 28.0671 199.33C28.0671 199.331 28.0671 199.331 28.0671 199.332C28.0671 199.332 28.0671 199.333 28.0671 199.333C28.0671 199.334 28.0671 199.334 28.0671 199.335C28.0671 199.335 28.0671 199.336 28.0671 199.336C28.0671 199.337 28.0671 199.337 28.0671 199.338C28.0671 199.339 28.0671 199.339 28.0671 199.34C28.0671 199.34 28.0671 199.341 28.0671 199.341C28.0671 199.342 28.0671 199.342 28.0671 199.343C28.0671 199.343 28.0671 199.344 28.0671 199.344C28.0671 199.345 28.0671 199.346 28.0671 199.346C28.0671 199.347 28.0671 199.347 28.0671 199.348C28.0671 199.348 28.0671 199.349 28.0671 199.349C28.0671 199.35 28.0671 199.35 28.0671 199.351C28.0671 199.352 28.0671 199.352 28.0671 199.353C28.0671 199.353 28.0671 199.354 28.0671 199.354C28.0671 199.355 28.0671 199.356 28.0671 199.356C28.0671 199.357 28.0671 199.357 28.0671 199.358C28.0671 199.358 28.0671 199.359 28.0671 199.36C28.0671 199.36 28.0671 199.361 28.0671 199.361C28.0671 199.362 28.0671 199.362 28.0671 199.363C28.0671 199.364 28.0671 199.364 28.0671 199.365C28.0671 199.365 28.0671 199.366 28.0671 199.366C28.0671 199.367 28.0671 199.368 28.0671 199.368C28.0671 199.369 28.0671 199.369 28.0671 199.37C28.0671 199.371 28.0671 199.371 28.0671 199.372C28.0671 199.372 28.0671 199.373 28.0671 199.374C28.0671 199.374 28.0671 199.375 28.0671 199.375C28.0671 199.376 28.0671 199.377 28.0671 199.377C28.0671 199.378 28.0671 199.378 28.0671 199.379C28.0671 199.38 28.0671 199.38 28.0671 199.381C28.0671 199.382 28.0671 199.382 28.0671 199.383C28.0671 199.383 28.0671 199.384 28.0671 199.385C28.0671 199.385 28.0671 199.386 28.0671 199.386C28.0671 199.387 28.0671 199.388 28.0671 199.388C28.0671 199.389 28.0671 199.39 28.0671 199.39C28.0671 199.391 28.0671 199.391 28.0671 199.392C28.0671 199.393 28.0671 199.393 28.0671 199.394C28.0671 199.395 28.0671 199.395 28.0671 199.396C28.0671 199.397 28.0671 199.397 28.0671 199.398C28.0671 199.399 28.0671 199.399 28.0671 199.4C28.0671 199.4 28.0671 199.401 28.0671 199.402C28.0671 199.402 28.0671 199.403 28.0671 199.404C28.0671 199.404 28.0671 199.405 28.0671 199.406C28.0671 199.406 28.0671 199.407 28.0671 199.408C28.0671 199.408 28.0671 199.409 28.0671 199.41C28.0671 199.41 28.0671 199.411 28.0671 199.412C28.0671 199.412 28.0671 199.413 28.0671 199.414C28.0671 199.414 28.0671 199.415 28.0671 199.416C28.0671 199.416 28.0671 199.417 28.0671 199.418C28.0671 199.418 28.0671 199.419 28.0671 199.42C28.0671 199.42 28.0671 199.421 28.0671 199.422C28.0671 199.422 28.0671 199.423 28.0671 199.424C28.0671 199.424 28.0671 199.425 28.0671 199.426C28.0671 199.426 28.0671 199.427 28.0671 199.428C28.0671 199.428 28.0671 199.429 28.0671 199.43C28.0671 199.431 28.0671 199.431 28.0671 199.432C28.0671 199.433 28.0671 199.433 28.0671 199.434C28.0671 199.435 28.0671 199.435 28.0671 199.436C28.0671 199.437 28.0671 199.437 28.0671 199.438C28.0671 199.439 28.0671 199.44 28.0671 199.44C28.0671 199.441 28.0671 199.442 28.0671 199.442C28.0671 199.443 28.0671 199.444 28.0671 199.445C28.0671 199.445 28.0671 199.446 28.0671 199.447C28.0671 199.447 28.0671 199.448 28.0671 199.449C28.0671 199.449 28.0671 199.45 28.0671 199.451C28.0671 199.452 28.0671 199.452 28.0671 199.453C28.0671 199.454 28.0671 199.455 28.0671 199.455C28.0671 199.456 28.0671 199.457 28.0671 199.457C28.0671 199.458 28.0671 199.459 28.0671 199.46C28.0671 199.46 28.0671 199.461 28.0671 199.462C28.0671 199.462 28.0671 199.463 28.0671 199.464C28.0671 199.465 28.0671 199.465 28.0671 199.466C28.0671 199.467 28.0671 199.468 28.0671 199.468C28.0671 199.469 28.0671 199.47 28.0671 199.471C28.0671 199.471 28.0671 199.472 28.0671 199.473C28.0671 199.474 28.0671 199.474 28.0671 199.475C28.0671 199.476 28.0671 199.476 28.0671 199.477C28.0671 199.478 28.0671 199.479 28.0671 199.479C28.0671 199.48 28.0671 199.481 28.0671 199.482C28.0671 199.482 28.0671 199.483 28.0671 199.484C28.0671 199.485 28.0671 199.485 28.0671 199.486C28.0671 199.487 28.0671 199.488 28.0671 199.489C28.0671 199.489 28.0671 199.49 28.0671 199.491C28.0671 199.492 28.0671 199.492 28.0671 199.493C28.0671 199.494 28.0671 199.495 28.0671 199.495C28.0671 199.496 28.0671 199.497 28.0671 199.498C28.0671 199.498 28.0671 199.499 28.0671 199.5C28.0671 199.501 28.0671 199.502 28.0671 199.502C28.0671 199.503 28.0671 199.504 28.0671 199.505C28.0671 199.505 28.0671 199.506 28.0671 199.507C28.0671 199.508 28.0671 199.508 28.0671 199.509C28.0671 199.51 28.0671 199.511 28.0671 199.512C28.0671 199.512 28.0671 199.513 28.0671 199.514C28.0671 199.515 28.0671 199.516 28.0671 199.516C28.0671 199.517 28.0671 199.518 28.0671 199.519C28.0671 199.519 28.0671 199.52 28.0671 199.521C28.0671 199.522 28.0671 199.523 28.0671 199.523C28.0671 199.524 28.0671 199.525 28.0671 199.526C28.0671 199.527 28.0671 199.527 28.0671 199.528C28.0671 199.529 28.0671 199.53 28.0671 199.531C28.0671 199.531 28.0671 199.532 28.0671 199.533C28.0671 199.534 28.0671 199.535 28.0671 199.535C28.0671 199.536 28.0671 199.537 28.0671 199.538C28.0671 199.539 28.0671 199.539 28.0671 199.54C28.0671 199.541 28.0671 199.542 28.0671 199.543C28.0671 199.543 28.0671 199.544 28.0671 199.545C28.0671 199.546 28.0671 199.547 28.0671 199.547C28.0671 199.548 28.0671 199.549 28.0671 199.55C28.0671 199.551 28.0671 199.551 28.0671 199.552C28.0671 199.553 28.0671 199.554 28.0671 199.555C28.0671 199.556 28.0671 199.556 28.0671 199.557C28.0671 199.558 28.0671 199.559 28.0671 199.56C28.0671 199.56 28.0671 199.561 28.0671 199.562C28.0671 199.563 28.0671 199.564 28.0671 199.565C28.0671 199.565 28.0671 199.566 28.0671 199.567C28.0671 199.568 28.0671 199.569 28.0671 199.57C28.0671 199.57 28.0671 199.571 28.0671 199.572C28.0671 199.573 28.0671 199.574 28.0671 199.575C28.0671 199.575 28.0671 199.576 28.0671 199.577C28.0671 199.578 28.0671 199.579 28.0671 199.58C28.0671 199.58 28.0671 199.581 28.0671 199.582C28.0671 199.583 28.0671 199.584 28.0671 199.585C28.0671 199.585 28.0671 199.586 28.0671 199.587C28.0671 199.588 28.0671 199.589 28.0671 199.59C28.0671 199.59 28.0671 199.591 28.0671 199.592C28.0671 199.593 28.0671 199.594 28.0671 199.595C28.0671 199.595 28.0671 199.596 28.0671 199.597C28.0671 199.598 28.0671 199.599 28.0671 199.6C28.0671 199.601 28.0671 199.601 28.0671 199.602C28.0671 199.603 28.0671 199.604 28.0671 199.605C28.0671 199.606 28.0671 199.606 28.0671 199.607C28.0671 199.608 28.0671 199.609 28.0671 199.61C28.0671 199.611 28.0671 199.612 28.0671 199.612C28.0671 199.613 28.0671 199.614 28.0671 199.615C28.0671 199.616 28.0671 199.617 28.0671 199.618C28.0671 199.618 28.0671 199.619 28.0671 199.62C28.0671 199.621 28.0671 199.622 28.0671 199.623C28.0671 199.624 28.0671 199.624 28.0671 199.625C28.0671 199.626 28.0671 199.627 28.0671 199.628C28.0671 199.629 28.0671 199.63 28.0671 199.63C28.0671 199.631 28.0671 199.632 28.0671 199.633C28.0671 199.634 28.0671 199.635 28.0671 199.636C28.0671 199.637 28.0671 199.637 28.0671 199.638C28.0671 199.639 28.0671 199.64 28.0671 199.641C28.0671 199.642 28.0671 199.643 28.0671 199.644C28.0671 199.644 28.0671 199.645 28.0671 199.646C28.0671 199.647 28.0671 199.648 28.0671 199.649C28.0671 199.65 28.0671 199.65 28.0671 199.651C28.0671 199.652 28.0671 199.653 28.0671 199.654C28.0671 199.655 28.0671 199.656 28.0671 199.657C28.0671 199.657 28.0671 199.658 28.0671 199.659C28.0671 199.66 28.0671 199.661 28.0671 199.662C28.0671 199.663 28.0671 199.664 28.0671 199.665C28.0671 199.665 28.0671 199.666 28.0671 199.667C28.0671 199.668 28.0671 199.669 28.0671 199.67C28.0671 199.671 28.0671 199.672 28.0671 199.672C28.0671 199.673 28.0671 199.674 28.0671 199.675C28.0671 199.676 28.0671 199.677 28.0671 199.678C28.0671 199.679 28.0671 199.68 28.0671 199.68C28.0671 199.681 28.0671 199.682 28.0671 199.683C28.0671 199.684 28.0671 199.685 28.0671 199.686C28.0671 199.687 28.0671 199.688 28.0671 199.688C28.0671 199.689 28.0671 199.69 28.0671 199.691C28.0671 199.692 28.0671 199.693 28.0671 199.694C28.0671 199.695 28.0671 199.696 28.0671 199.696C28.0671 199.697 28.0671 199.698 28.0671 199.699C28.0671 199.7 28.0671 199.701 28.0671 199.702C28.0671 199.703 28.0671 199.704 28.0671 199.704C28.0671 199.705 28.0671 199.706 28.0671 199.707C28.0671 199.708 28.0671 199.709 28.0671 199.71C28.0671 199.711 28.0671 199.712 28.0671 199.713C28.0671 199.713 28.0671 199.714 28.0671 199.715C28.0671 199.716 28.0671 199.717 28.0671 199.718C28.0671 199.719 28.0671 199.72 28.0671 199.721C28.0671 199.722 28.0671 199.722 28.0671 199.723C28.0671 199.724 28.0671 199.725 28.0671 199.726C28.0671 199.727 28.0671 199.728 28.0671 199.729C28.0671 199.73 28.0671 199.731 28.0671 199.731C28.0671 199.732 28.0671 199.733 28.0671 199.734C28.0671 199.735 28.0671 199.736 28.0671 199.737C28.0671 199.738 28.0671 199.739 28.0671 199.74C28.0671 199.74 28.0671 199.741 28.0671 199.742C28.0671 199.743 28.0671 199.744 28.0671 199.745C28.0671 199.746 28.0671 199.747 28.0671 199.748C28.0671 199.749 28.0671 199.75 28.0671 199.75C28.0671 199.751 28.0671 199.752 28.0671 199.753C28.0671 199.754 28.0671 199.755 28.0671 199.756C28.0671 199.757 28.0671 199.758 28.0671 199.759C28.0671 199.76 28.0671 199.76 28.0671 199.761C28.0671 199.762 28.0671 199.763 28.0671 199.764C28.0671 199.765 28.0671 199.766 28.0671 199.767C28.0671 199.768 28.0671 199.769 28.0671 199.77C28.0671 199.77 28.0671 199.771 28.0671 199.772C28.0671 199.773 28.0671 199.774 28.0671 199.775C28.0671 199.776 28.0671 199.777 28.0671 199.778C28.0671 199.779 28.0671 199.78 28.0671 199.78C28.0671 199.781 28.0671 199.782 28.0671 199.783C28.0671 199.784 28.0671 199.785 28.0671 199.786C28.0671 199.787 28.0671 199.788 28.0671 199.789C28.0671 199.79 28.0671 199.791 28.0671 199.791C28.0671 199.792 28.0671 199.793 28.0671 199.794C28.0671 199.795 28.0671 199.796 28.0671 199.797C28.0671 199.798 28.0671 199.799 28.0671 199.8C28.0671 199.801 28.0671 199.801 28.0671 199.802C28.0671 199.803 28.0671 199.804 28.0671 199.805H30.0671C30.0671 199.804 30.0671 199.803 30.0671 199.802C30.0671 199.801 30.0671 199.801 30.0671 199.8C30.0671 199.799 30.0671 199.798 30.0671 199.797C30.0671 199.796 30.0671 199.795 30.0671 199.794C30.0671 199.793 30.0671 199.792 30.0671 199.791C30.0671 199.791 30.0671 199.79 30.0671 199.789C30.0671 199.788 30.0671 199.787 30.0671 199.786C30.0671 199.785 30.0671 199.784 30.0671 199.783C30.0671 199.782 30.0671 199.781 30.0671 199.78C30.0671 199.78 30.0671 199.779 30.0671 199.778C30.0671 199.777 30.0671 199.776 30.0671 199.775C30.0671 199.774 30.0671 199.773 30.0671 199.772C30.0671 199.771 30.0671 199.77 30.0671 199.77C30.0671 199.769 30.0671 199.768 30.0671 199.767C30.0671 199.766 30.0671 199.765 30.0671 199.764C30.0671 199.763 30.0671 199.762 30.0671 199.761C30.0671 199.76 30.0671 199.76 30.0671 199.759C30.0671 199.758 30.0671 199.757 30.0671 199.756C30.0671 199.755 30.0671 199.754 30.0671 199.753C30.0671 199.752 30.0671 199.751 30.0671 199.75C30.0671 199.75 30.0671 199.749 30.0671 199.748C30.0671 199.747 30.0671 199.746 30.0671 199.745C30.0671 199.744 30.0671 199.743 30.0671 199.742C30.0671 199.741 30.0671 199.74 30.0671 199.74C30.0671 199.739 30.0671 199.738 30.0671 199.737C30.0671 199.736 30.0671 199.735 30.0671 199.734C30.0671 199.733 30.0671 199.732 30.0671 199.731C30.0671 199.731 30.0671 199.73 30.0671 199.729C30.0671 199.728 30.0671 199.727 30.0671 199.726C30.0671 199.725 30.0671 199.724 30.0671 199.723C30.0671 199.722 30.0671 199.722 30.0671 199.721C30.0671 199.72 30.0671 199.719 30.0671 199.718C30.0671 199.717 30.0671 199.716 30.0671 199.715C30.0671 199.714 30.0671 199.713 30.0671 199.713C30.0671 199.712 30.0671 199.711 30.0671 199.71C30.0671 199.709 30.0671 199.708 30.0671 199.707C30.0671 199.706 30.0671 199.705 30.0671 199.704C30.0671 199.704 30.0671 199.703 30.0671 199.702C30.0671 199.701 30.0671 199.7 30.0671 199.699C30.0671 199.698 30.0671 199.697 30.0671 199.696C30.0671 199.696 30.0671 199.695 30.0671 199.694C30.0671 199.693 30.0671 199.692 30.0671 199.691C30.0671 199.69 30.0671 199.689 30.0671 199.688C30.0671 199.688 30.0671 199.687 30.0671 199.686C30.0671 199.685 30.0671 199.684 30.0671 199.683C30.0671 199.682 30.0671 199.681 30.0671 199.68C30.0671 199.68 30.0671 199.679 30.0671 199.678C30.0671 199.677 30.0671 199.676 30.0671 199.675C30.0671 199.674 30.0671 199.673 30.0671 199.672C30.0671 199.672 30.0671 199.671 30.0671 199.67C30.0671 199.669 30.0671 199.668 30.0671 199.667C30.0671 199.666 30.0671 199.665 30.0671 199.665C30.0671 199.664 30.0671 199.663 30.0671 199.662C30.0671 199.661 30.0671 199.66 30.0671 199.659C30.0671 199.658 30.0671 199.657 30.0671 199.657C30.0671 199.656 30.0671 199.655 30.0671 199.654C30.0671 199.653 30.0671 199.652 30.0671 199.651C30.0671 199.65 30.0671 199.65 30.0671 199.649C30.0671 199.648 30.0671 199.647 30.0671 199.646C30.0671 199.645 30.0671 199.644 30.0671 199.644C30.0671 199.643 30.0671 199.642 30.0671 199.641C30.0671 199.64 30.0671 199.639 30.0671 199.638C30.0671 199.637 30.0671 199.637 30.0671 199.636C30.0671 199.635 30.0671 199.634 30.0671 199.633C30.0671 199.632 30.0671 199.631 30.0671 199.63C30.0671 199.63 30.0671 199.629 30.0671 199.628C30.0671 199.627 30.0671 199.626 30.0671 199.625C30.0671 199.624 30.0671 199.624 30.0671 199.623C30.0671 199.622 30.0671 199.621 30.0671 199.62C30.0671 199.619 30.0671 199.618 30.0671 199.618C30.0671 199.617 30.0671 199.616 30.0671 199.615C30.0671 199.614 30.0671 199.613 30.0671 199.612C30.0671 199.612 30.0671 199.611 30.0671 199.61C30.0671 199.609 30.0671 199.608 30.0671 199.607C30.0671 199.606 30.0671 199.606 30.0671 199.605C30.0671 199.604 30.0671 199.603 30.0671 199.602C30.0671 199.601 30.0671 199.601 30.0671 199.6C30.0671 199.599 30.0671 199.598 30.0671 199.597C30.0671 199.596 30.0671 199.595 30.0671 199.595C30.0671 199.594 30.0671 199.593 30.0671 199.592C30.0671 199.591 30.0671 199.59 30.0671 199.59C30.0671 199.589 30.0671 199.588 30.0671 199.587C30.0671 199.586 30.0671 199.585 30.0671 199.585C30.0671 199.584 30.0671 199.583 30.0671 199.582C30.0671 199.581 30.0671 199.58 30.0671 199.58C30.0671 199.579 30.0671 199.578 30.0671 199.577C30.0671 199.576 30.0671 199.575 30.0671 199.575C30.0671 199.574 30.0671 199.573 30.0671 199.572C30.0671 199.571 30.0671 199.57 30.0671 199.57C30.0671 199.569 30.0671 199.568 30.0671 199.567C30.0671 199.566 30.0671 199.565 30.0671 199.565C30.0671 199.564 30.0671 199.563 30.0671 199.562C30.0671 199.561 30.0671 199.56 30.0671 199.56C30.0671 199.559 30.0671 199.558 30.0671 199.557C30.0671 199.556 30.0671 199.556 30.0671 199.555C30.0671 199.554 30.0671 199.553 30.0671 199.552C30.0671 199.551 30.0671 199.551 30.0671 199.55C30.0671 199.549 30.0671 199.548 30.0671 199.547C30.0671 199.547 30.0671 199.546 30.0671 199.545C30.0671 199.544 30.0671 199.543 30.0671 199.543C30.0671 199.542 30.0671 199.541 30.0671 199.54C30.0671 199.539 30.0671 199.539 30.0671 199.538C30.0671 199.537 30.0671 199.536 30.0671 199.535C30.0671 199.535 30.0671 199.534 30.0671 199.533C30.0671 199.532 30.0671 199.531 30.0671 199.531C30.0671 199.53 30.0671 199.529 30.0671 199.528C30.0671 199.527 30.0671 199.527 30.0671 199.526C30.0671 199.525 30.0671 199.524 30.0671 199.523C30.0671 199.523 30.0671 199.522 30.0671 199.521C30.0671 199.52 30.0671 199.519 30.0671 199.519C30.0671 199.518 30.0671 199.517 30.0671 199.516C30.0671 199.516 30.0671 199.515 30.0671 199.514C30.0671 199.513 30.0671 199.512 30.0671 199.512C30.0671 199.511 30.0671 199.51 30.0671 199.509C30.0671 199.508 30.0671 199.508 30.0671 199.507C30.0671 199.506 30.0671 199.505 30.0671 199.505C30.0671 199.504 30.0671 199.503 30.0671 199.502C30.0671 199.502 30.0671 199.501 30.0671 199.5C30.0671 199.499 30.0671 199.498 30.0671 199.498C30.0671 199.497 30.0671 199.496 30.0671 199.495C30.0671 199.495 30.0671 199.494 30.0671 199.493C30.0671 199.492 30.0671 199.492 30.0671 199.491C30.0671 199.49 30.0671 199.489 30.0671 199.489C30.0671 199.488 30.0671 199.487 30.0671 199.486C30.0671 199.485 30.0671 199.485 30.0671 199.484C30.0671 199.483 30.0671 199.482 30.0671 199.482C30.0671 199.481 30.0671 199.48 30.0671 199.479C30.0671 199.479 30.0671 199.478 30.0671 199.477C30.0671 199.476 30.0671 199.476 30.0671 199.475C30.0671 199.474 30.0671 199.474 30.0671 199.473C30.0671 199.472 30.0671 199.471 30.0671 199.471C30.0671 199.47 30.0671 199.469 30.0671 199.468C30.0671 199.468 30.0671 199.467 30.0671 199.466C30.0671 199.465 30.0671 199.465 30.0671 199.464C30.0671 199.463 30.0671 199.462 30.0671 199.462C30.0671 199.461 30.0671 199.46 30.0671 199.46C30.0671 199.459 30.0671 199.458 30.0671 199.457C30.0671 199.457 30.0671 199.456 30.0671 199.455C30.0671 199.455 30.0671 199.454 30.0671 199.453C30.0671 199.452 30.0671 199.452 30.0671 199.451C30.0671 199.45 30.0671 199.449 30.0671 199.449C30.0671 199.448 30.0671 199.447 30.0671 199.447C30.0671 199.446 30.0671 199.445 30.0671 199.445C30.0671 199.444 30.0671 199.443 30.0671 199.442C30.0671 199.442 30.0671 199.441 30.0671 199.44C30.0671 199.44 30.0671 199.439 30.0671 199.438C30.0671 199.437 30.0671 199.437 30.0671 199.436C30.0671 199.435 30.0671 199.435 30.0671 199.434C30.0671 199.433 30.0671 199.433 30.0671 199.432C30.0671 199.431 30.0671 199.431 30.0671 199.43C30.0671 199.429 30.0671 199.428 30.0671 199.428C30.0671 199.427 30.0671 199.426 30.0671 199.426C30.0671 199.425 30.0671 199.424 30.0671 199.424C30.0671 199.423 30.0671 199.422 30.0671 199.422C30.0671 199.421 30.0671 199.42 30.0671 199.42C30.0671 199.419 30.0671 199.418 30.0671 199.418C30.0671 199.417 30.0671 199.416 30.0671 199.416C30.0671 199.415 30.0671 199.414 30.0671 199.414C30.0671 199.413 30.0671 199.412 30.0671 199.412C30.0671 199.411 30.0671 199.41 30.0671 199.41C30.0671 199.409 30.0671 199.408 30.0671 199.408C30.0671 199.407 30.0671 199.406 30.0671 199.406C30.0671 199.405 30.0671 199.404 30.0671 199.404C30.0671 199.403 30.0671 199.402 30.0671 199.402C30.0671 199.401 30.0671 199.4 30.0671 199.4C30.0671 199.399 30.0671 199.399 30.0671 199.398C30.0671 199.397 30.0671 199.397 30.0671 199.396C30.0671 199.395 30.0671 199.395 30.0671 199.394C30.0671 199.393 30.0671 199.393 30.0671 199.392C30.0671 199.391 30.0671 199.391 30.0671 199.39C30.0671 199.39 30.0671 199.389 30.0671 199.388C30.0671 199.388 30.0671 199.387 30.0671 199.386C30.0671 199.386 30.0671 199.385 30.0671 199.385C30.0671 199.384 30.0671 199.383 30.0671 199.383C30.0671 199.382 30.0671 199.382 30.0671 199.381C30.0671 199.38 30.0671 199.38 30.0671 199.379C30.0671 199.378 30.0671 199.378 30.0671 199.377C30.0671 199.377 30.0671 199.376 30.0671 199.375C30.0671 199.375 30.0671 199.374 30.0671 199.374C30.0671 199.373 30.0671 199.372 30.0671 199.372C30.0671 199.371 30.0671 199.371 30.0671 199.37C30.0671 199.369 30.0671 199.369 30.0671 199.368C30.0671 199.368 30.0671 199.367 30.0671 199.366C30.0671 199.366 30.0671 199.365 30.0671 199.365C30.0671 199.364 30.0671 199.364 30.0671 199.363C30.0671 199.362 30.0671 199.362 30.0671 199.361C30.0671 199.361 30.0671 199.36 30.0671 199.36C30.0671 199.359 30.0671 199.358 30.0671 199.358C30.0671 199.357 30.0671 199.357 30.0671 199.356C30.0671 199.356 30.0671 199.355 30.0671 199.354C30.0671 199.354 30.0671 199.353 30.0671 199.353C30.0671 199.352 30.0671 199.352 30.0671 199.351C30.0671 199.35 30.0671 199.35 30.0671 199.349C30.0671 199.349 30.0671 199.348 30.0671 199.348C30.0671 199.347 30.0671 199.347 30.0671 199.346C30.0671 199.346 30.0671 199.345 30.0671 199.344C30.0671 199.344 30.0671 199.343 30.0671 199.343C30.0671 199.342 30.0671 199.342 30.0671 199.341C30.0671 199.341 30.0671 199.34 30.0671 199.34C30.0671 199.339 30.0671 199.339 30.0671 199.338C30.0671 199.337 30.0671 199.337 30.0671 199.336C30.0671 199.336 30.0671 199.335 30.0671 199.335C30.0671 199.334 30.0671 199.334 30.0671 199.333C30.0671 199.333 30.0671 199.332 30.0671 199.332C30.0671 199.331 30.0671 199.331 30.0671 199.33C30.0671 199.33 30.0671 199.329 30.0671 199.329C30.0671 199.328 30.0671 199.328 30.0671 199.327C30.0671 199.327 30.0671 199.326 30.0671 199.326C30.0671 199.325 30.0671 199.325 30.0671 199.324C30.0671 199.324 30.0671 199.323 30.0671 199.323C30.0671 199.322 30.0671 199.322 30.0671 199.321C30.0671 199.321 30.0671 199.32 30.0671 199.32C30.0671 199.319 30.0671 199.319 30.0671 199.318C30.0671 199.318 30.0671 199.317 30.0671 199.317C30.0671 199.316 30.0671 199.316 30.0671 199.316C30.0671 199.315 30.0671 199.315 30.0671 199.314C30.0671 199.314 30.0671 199.313 30.0671 199.313C30.0671 199.312 30.0671 199.312 30.0671 199.311C30.0671 199.311 30.0671 199.31 30.0671 199.31C30.0671 199.31 30.0671 199.309 30.0671 199.309C30.0671 199.308 30.0671 199.308 30.0671 199.307C30.0671 199.307 30.0671 199.306 30.0671 199.306C30.0671 199.305 30.0671 199.305 30.0671 199.305C30.0671 199.304 30.0671 199.304 30.0671 199.303C30.0671 199.303 30.0671 199.302 30.0671 199.302C30.0671 199.302 30.0671 199.301 30.0671 199.301C30.0671 199.3 30.0671 199.3 30.0671 199.299C30.0671 199.299 30.0671 199.299 30.0671 199.298C30.0671 199.298 30.0671 199.297 30.0671 199.297C30.0671 199.296 30.0671 199.296 30.0671 199.296C30.0671 199.295 30.0671 199.295 30.0671 199.294C30.0671 199.294 30.0671 199.294 30.0671 199.293C30.0671 199.293 30.0671 199.292 30.0671 199.292C30.0671 199.292 30.0671 199.291 30.0671 199.291C30.0671 199.29 30.0671 199.29 30.0671 199.29C30.0671 199.289 30.0671 199.289 30.0671 199.288C30.0671 199.288 30.0671 199.288 30.0671 199.287C30.0671 199.287 30.0671 199.287 30.0671 199.286C30.0671 199.286 30.0671 199.285 30.0671 199.285C30.0671 199.285 30.0671 199.284 30.0671 199.284C30.0671 199.284 30.0671 199.283 30.0671 199.283C30.0671 199.282 30.0671 199.282 30.0671 199.282C30.0671 199.281 30.0671 199.281 30.0671 199.281C30.0671 199.28 30.0671 199.28 30.0671 199.28C30.0671 199.279 30.0671 199.279 30.0671 199.279C30.0671 199.278 30.0671 199.278 30.0671 199.278C30.0671 199.277 30.0671 199.277 30.0671 199.277C30.0671 199.276 30.0671 199.276 30.0671 199.276C30.0671 199.275 30.0671 199.275 30.0671 199.275C30.0671 199.274 30.0671 199.274 30.0671 199.274C30.0671 199.273 30.0671 199.273 30.0671 199.273C30.0671 199.272 30.0671 199.272 30.0671 199.272C30.0671 199.271 30.0671 199.271 30.0671 199.271C30.0671 199.27 30.0671 199.27 30.0671 199.27C30.0671 199.269 30.0671 199.269 30.0671 199.269C30.0671 199.269 30.0671 199.268 30.0671 199.268C30.0671 199.268 30.0671 199.267 30.0671 199.267C30.0671 199.267 30.0671 199.267 30.0671 199.266C30.0671 199.266 30.0671 199.266 30.0671 199.265C30.0671 199.265 30.0671 199.265 30.0671 199.265C30.0671 199.264 30.0671 199.264 30.0671 199.264C30.0671 199.263 30.0671 199.263 30.0671 199.263C30.0671 199.263 30.0671 199.262 30.0671 199.262C30.0671 199.262 30.0671 199.262 30.0671 199.261C30.0671 199.261 30.0671 199.261 30.0671 199.261C30.0671 199.26 30.0671 199.26 30.0671 199.26C30.0671 199.26 30.0671 199.259 30.0671 199.259C30.0671 199.259 30.0671 199.259 30.0671 199.258C30.0671 199.258 30.0671 199.258 30.0671 199.258C30.0671 199.257 30.0671 199.257 30.0671 199.257C30.0671 199.257 30.0671 199.256 30.0671 199.256C30.0671 199.256 30.0671 199.256 30.0671 199.256C30.0671 199.255 30.0671 199.255 30.0671 199.255C30.0671 199.255 30.0671 199.254 30.0671 199.254C30.0671 199.254 30.0671 199.254 30.0671 199.254C30.0671 199.253 30.0671 199.253 30.0671 199.253C30.0671 199.253 30.0671 199.253 30.0671 199.252C30.0671 199.252 30.0671 199.252 30.0671 199.252C30.0671 199.252 30.0671 199.251 30.0671 199.251C30.0671 199.251 30.0671 199.251 30.0671 199.251C30.0671 199.251 30.0671 199.25 30.0671 199.25C30.0671 199.25 30.0671 199.25 30.0671 199.25C30.0671 199.249 30.0671 199.249 30.0671 199.249C30.0671 199.249 30.0671 199.249 30.0671 199.249C30.0671 199.248 30.0671 199.248 30.0671 199.248C30.0671 199.248 30.0671 199.248 30.0671 199.248C30.0671 199.248 30.0671 199.247 30.0671 199.247C30.0671 199.247 30.0671 199.247 30.0671 199.247C30.0671 199.247 30.0671 199.247 30.0671 199.246C30.0671 199.246 30.0671 199.246 30.0671 199.246C30.0671 199.246 30.0671 199.246 30.0671 199.246C30.0671 199.245 30.0671 199.245 30.0671 199.245C30.0671 199.245 30.0671 199.245 30.0671 199.245C30.0671 199.245 30.0671 199.245 30.0671 199.245C30.0671 199.244 30.0671 199.244 30.0671 199.244C30.0671 199.244 30.0671 199.244 30.0671 199.244C30.0671 199.244 30.0671 199.244 30.0671 199.244C30.0671 199.244 30.0671 199.243 30.0671 199.243C30.0671 199.243 30.0671 199.243 30.0671 199.243C30.0671 199.243 30.0671 199.243 30.0671 199.243C30.0671 199.243 30.0671 199.243 30.0671 199.243C30.0671 199.243 30.0671 199.243 30.0671 199.242C30.0671 199.242 30.0671 199.242 30.0671 199.242C30.0671 199.242 30.0671 199.242 30.0671 199.242C30.0671 199.242 30.0671 199.242 30.0671 199.242C30.0671 199.242 30.0671 199.242 30.0671 199.242C30.0671 199.242 30.0671 199.242 30.0671 199.242C30.0671 199.242 30.0671 199.242 30.0671 199.242C30.0671 199.241 30.0671 199.241 30.0671 199.241C30.0671 199.241 30.0671 199.241 30.0671 199.241C30.0671 199.241 30.0671 199.241 30.0671 199.241C30.0671 199.241 30.0671 199.241 30.0671 199.241C30.0671 199.241 30.0671 199.241 30.0671 199.241C30.0671 199.241 30.0671 199.241 30.0671 199.241C29.0671 199.241 28.0671 199.241 28.0671 199.241C28.0671 199.241 28.0671 199.241 28.0671 199.241C28.0671 199.241 28.0671 199.241 28.0671 199.241C28.0671 199.241 28.0671 199.241 28.0671 199.241C28.0671 199.241 28.0671 199.241 28.0671 199.241C28.0671 199.241 28.0671 199.241 28.0671 199.241C28.0671 199.242 28.0671 199.242 28.0671 199.242C28.0671 199.242 28.0671 199.242 28.0671 199.242C28.0671 199.242 28.0671 199.242 28.0671 199.242C28.0671 199.242 28.0671 199.242 28.0671 199.242C28.0671 199.242 28.0671 199.242 28.0671 199.242C28.0671 199.242 28.0671 199.242 28.0671 199.242C28.0671 199.242 28.0671 199.243 28.0671 199.243C28.0671 199.243 28.0671 199.243 28.0671 199.243C28.0671 199.243 28.0671 199.243 28.0671 199.243C28.0671 199.243 28.0671 199.243 28.0671 199.243C28.0671 199.243 28.0671 199.244 28.0671 199.244C28.0671 199.244 28.0671 199.244 28.0671 199.244C28.0671 199.244 28.0671 199.244 28.0671 199.244C28.0671 199.244 28.0671 199.244 28.0671 199.245C28.0671 199.245 28.0671 199.245 28.0671 199.245C28.0671 199.245 28.0671 199.245 28.0671 199.245C28.0671 199.245 28.0671 199.246 28.0671 199.246C28.0671 199.246 28.0671 199.246 28.0671 199.246C28.0671 199.246 28.0671 199.246 28.0671 199.247C28.0671 199.247 28.0671 199.247 28.0671 199.247C28.0671 199.247 28.0671 199.247 28.0671 199.247C28.0671 199.248 28.0671 199.248 28.0671 199.248C28.0671 199.248 28.0671 199.248 28.0671 199.248C28.0671 199.249 28.0671 199.249 28.0671 199.249C28.0671 199.249 28.0671 199.249 28.0671 199.249C28.0671 199.25 28.0671 199.25 28.0671 199.25C28.0671 199.25 28.0671 199.25 28.0671 199.251C28.0671 199.251 28.0671 199.251 28.0671 199.251C28.0671 199.251 28.0671 199.252 28.0671 199.252C28.0671 199.252 28.0671 199.252 28.0671 199.252C28.0671 199.253 28.0671 199.253 28.0671 199.253C28.0671 199.253 28.0671 199.253 28.0671 199.254C28.0671 199.254 28.0671 199.254 28.0671 199.254C28.0671 199.255 28.0671 199.255 28.0671 199.255C28.0671 199.255 28.0671 199.256 28.0671 199.256C28.0671 199.256 28.0671 199.256 28.0671 199.257C28.0671 199.257 28.0671 199.257 28.0671 199.257C28.0671 199.258 28.0671 199.258 28.0671 199.258C28.0671 199.258 28.0671 199.259 28.0671 199.259C28.0671 199.259 28.0671 199.259 28.0671 199.26C28.0671 199.26 28.0671 199.26 28.0671 199.261C28.0671 199.261 28.0671 199.261 28.0671 199.261C28.0671 199.262 28.0671 199.262 28.0671 199.262C28.0671 199.263 28.0671 199.263 28.0671 199.263C28.0671 199.263 28.0671 199.264 28.0671 199.264C28.0671 199.264 28.0671 199.265 28.0671 199.265C28.0671 199.265 28.0671 199.266 28.0671 199.266C28.0671 199.266 28.0671 199.267 28.0671 199.267C28.0671 199.267 28.0671 199.268 28.0671 199.268C28.0671 199.268 28.0671 199.269 28.0671 199.269C28.0671 199.269 28.0671 199.27 28.0671 199.27C28.0671 199.27 28.0671 199.271 28.0671 199.271C28.0671 199.271 28.0671 199.272 28.0671 199.272C28.0671 199.272 28.0671 199.273 28.0671 199.273C28.0671 199.273 28.0671 199.274 28.0671 199.274C28.0671 199.275 28.0671 199.275 28.0671 199.275C28.0671 199.276 28.0671 199.276 28.0671 199.276C28.0671 199.277 28.0671 199.277 28.0671 199.278C28.0671 199.278 28.0671 199.278 28.0671 199.279C28.0671 199.279 28.0671 199.28 28.0671 199.28C28.0671 199.28 28.0671 199.281 28.0671 199.281C28.0671 199.282 28.0671 199.282 28.0671 199.283C28.0671 199.283 28.0671 199.283 28.0671 199.284C28.0671 199.284 28.0671 199.285 28.0671 199.285C28.0671 199.286 28.0671 199.286 28.0671 199.286C28.0671 199.287 28.0671 199.287 28.0671 199.288C28.0671 199.288 28.0671 199.289 28.0671 199.289C28.0671 199.29 28.0671 199.29 28.0671 199.29C28.0671 199.291 28.0671 199.291 28.0671 199.292C28.0671 199.292 28.0671 199.293 28.0671 199.293C28.0671 199.294 28.0671 199.294 28.0671 199.295C28.0671 199.295 28.0671 199.296 28.0671 199.296C28.0671 199.297 28.0671 199.297 28.0671 199.298C28.0671 199.298 28.0671 199.299 28.0671 199.299C28.0671 199.3 28.0671 199.3 28.0671 199.301C28.0671 199.301 28.0671 199.302 28.0671 199.302C28.0671 199.303 28.0671 199.303 28.0671 199.304C28.0671 199.304 28.0671 199.305 28.0671 199.305C28.0671 199.306 28.0671 199.306 28.0671 199.307C28.0671 199.307 28.0671 199.308 28.0671 199.308C28.0671 199.309 28.0671 199.31 28.0671 199.31C28.0671 199.311 28.0671 199.311 28.0671 199.312C28.0671 199.312 28.0671 199.313 28.0671 199.313C28.0671 199.314 28.0671 199.315 28.0671 199.315C28.0671 199.316 28.0671 199.316 28.0671 199.317C28.0671 199.318 28.0671 199.318 28.0671 199.319C28.0671 199.319 28.0671 199.32 28.0671 199.32C28.0671 199.321 28.0671 199.322 28.0671 199.322C28.0671 199.323 28.0671 199.323 28.0671 199.324C28.0671 199.325 28.0671 199.325 28.0671 199.326C28.0671 199.326 28.0671 199.327 28.0671 199.328C28.0671 199.328 28.0671 199.329 28.0671 199.33C28.0671 199.33 28.0671 199.331 28.0671 199.332C28.0671 199.332 28.0671 199.333 28.0671 199.333C28.0671 199.334 28.0671 199.335 28.0671 199.335C28.0671 199.336 28.0671 199.337 28.0671 199.337C28.0671 199.338 28.0671 199.339 28.0671 199.339C28.0671 199.34 28.0671 199.341 28.0671 199.341C28.0671 199.342 28.0671 199.343 28.0671 199.343C28.0671 199.344 28.0671 199.345 28.0671 199.345C28.0671 199.346 28.0671 199.347 28.0671 199.348C28.0671 199.348 28.0671 199.349 28.0671 199.35C28.0671 199.35 28.0671 199.351 28.0671 199.352C28.0671 199.352 28.0671 199.353 28.0671 199.354C28.0671 199.355 28.0671 199.355 28.0671 199.356C28.0671 199.357 28.0671 199.358 28.0671 199.358C28.0671 199.359 28.0671 199.36 28.0671 199.36C28.0671 199.361 28.0671 199.362 28.0671 199.363C28.0671 199.363 28.0671 199.364 28.0671 199.365C28.0671 199.366 28.0671 199.366 28.0671 199.367C28.0671 199.368 28.0671 199.369 28.0671 199.37C28.0671 199.37 28.0671 199.371 28.0671 199.372C28.0671 199.373 28.0671 199.373 28.0671 199.374C28.0671 199.375 28.0671 199.376 28.0671 199.377C28.0671 199.377 28.0671 199.378 28.0671 199.379C28.0671 199.38 28.0671 199.381 28.0671 199.381C28.0671 199.382 28.0671 199.383 28.0671 199.384C28.0671 199.385 28.0671 199.385 28.0671 199.386C28.0671 199.387 28.0671 199.388 28.0671 199.389C28.0671 199.39 28.0671 199.39 28.0671 199.391C28.0671 199.392 28.0671 199.393 28.0671 199.394C28.0671 199.395 28.0671 199.396 28.0671 199.396C28.0671 199.397 28.0671 199.398 28.0671 199.399C28.0671 199.4 28.0671 199.401 28.0671 199.402C28.0671 199.402 28.0671 199.403 28.0671 199.404C28.0671 199.405 28.0671 199.406 28.0671 199.407C28.0671 199.408 28.0671 199.409 28.0671 199.409C28.0671 199.41 28.0671 199.411 28.0671 199.412C28.0671 199.413 28.0671 199.414 28.0671 199.415C28.0671 199.416 28.0671 199.417 28.0671 199.418C28.0671 199.419 28.0671 199.419 28.0671 199.42C28.0671 199.421 28.0671 199.422 28.0671 199.423C28.0671 199.424 28.0671 199.425 28.0671 199.426C28.0671 199.427 28.0671 199.428 28.0671 199.429C28.0671 199.43 28.0671 199.431 28.0671 199.432C28.0671 199.433 28.0671 199.434 28.0671 199.435C28.0671 199.436 28.0671 199.437 28.0671 199.438C28.0671 199.439 28.0671 199.439 28.0671 199.44C28.0671 199.441 28.0671 199.442 28.0671 199.443C28.0671 199.444 28.0671 199.445 28.0671 199.446C28.0671 199.447 28.0671 199.448 28.0671 199.449C28.0671 199.45 28.0671 199.451 28.0671 199.452C28.0671 199.453 28.0671 199.454 28.0671 199.456C28.0671 199.457 28.0671 199.458 28.0671 199.459C28.0671 199.46 28.0671 199.461 28.0671 199.462C28.0671 199.463 28.0671 199.464 28.0671 199.465C28.0671 199.466 28.0671 199.467 28.0671 199.468C28.0671 199.469 28.0671 199.47 28.0671 199.471C28.0671 199.472 28.0671 199.473 28.0671 199.474C28.0671 199.475 28.0671 199.477 28.0671 199.478C28.0671 199.479 28.0671 199.48 28.0671 199.481C28.0671 199.482 28.0671 199.483 28.0671 199.484C28.0671 199.485 28.0671 199.486 28.0671 199.487C28.0671 199.489 28.0671 199.49 28.0671 199.491C28.0671 199.492 28.0671 199.493 28.0671 199.494C28.0671 199.495 28.0671 199.496 28.0671 199.498C28.0671 199.499 28.0671 199.5 28.0671 199.501C28.0671 199.502 28.0671 199.503 28.0671 199.504C28.0671 199.505 28.0671 199.507 28.0671 199.508C28.0671 199.509 28.0671 199.51 28.0671 199.511C28.0671 199.512 28.0671 199.514 28.0671 199.515C28.0671 199.516 28.0671 199.517 28.0671 199.518C28.0671 199.519 28.0671 199.521 28.0671 199.522C28.0671 199.523 28.0671 199.524 28.0671 199.525C28.0671 199.527 28.0671 199.528 28.0671 199.529C28.0671 199.53 28.0671 199.531 28.0671 199.533C28.0671 199.534 28.0671 199.535 28.0671 199.536C28.0671 199.538 28.0671 199.539 28.0671 199.54C28.0671 199.541 28.0671 199.543 28.0671 199.544C28.0671 199.545 28.0671 199.546 28.0671 199.547C28.0671 199.549 28.0671 199.55 28.0671 199.551C28.0671 199.552 28.0671 199.554 28.0671 199.555C28.0671 199.556 28.0671 199.558 28.0671 199.559C28.0671 199.56 28.0671 199.561 28.0671 199.563C28.0671 199.564 28.0671 199.565 28.0671 199.567C28.0671 199.568 28.0671 199.569 28.0671 199.57C28.0671 199.572 28.0671 199.573 28.0671 199.574C28.0671 199.576 28.0671 199.577 28.0671 199.578C28.0671 199.58 28.0671 199.581 28.0671 199.582C28.0671 199.584 28.0671 199.585 28.0671 199.586C28.0671 199.588 28.0671 199.589 28.0671 199.59C28.0671 199.592 28.0671 199.593 28.0671 199.594C28.0671 199.596 28.0671 199.597 28.0671 199.598C28.0671 199.6 28.0671 199.601 28.0671 199.603C28.0671 199.604 28.0671 199.605 28.0671 199.607C28.0671 199.608 28.0671 199.609 28.0671 199.611C28.0671 199.612 28.0671 199.614 28.0671 199.615C28.0671 199.616 28.0671 199.618 28.0671 199.619C28.0671 199.621 28.0671 199.622 28.0671 199.623C28.0671 199.625 28.0671 199.626 28.0671 199.628C28.0671 199.629 28.0671 199.631 28.0671 199.632C28.0671 199.633 28.0671 199.635 28.0671 199.636H30.0671ZM28.0671 199.805C28.0671 201.277 28.0676 202.799 28.2563 204.342L30.2415 204.1C30.07 202.696 30.0671 201.294 30.0671 199.805H28.0671ZM28.2563 204.342C28.6744 207.763 31.2577 210.846 33.5959 212.795L34.8763 211.258C32.6733 209.422 30.5668 206.761 30.2415 204.1L28.2563 204.342ZM33.5959 212.795C36.453 215.175 39.9227 217.129 43.398 218.407L44.0879 216.529C40.8137 215.326 37.5466 213.483 34.8763 211.258L33.5959 212.795ZM43.398 218.407C44.6236 218.857 45.7736 218.938 46.8564 218.917C47.3907 218.907 47.9252 218.871 48.4322 218.839C48.948 218.807 49.4454 218.78 49.951 218.78V216.78C49.3781 216.78 48.8266 216.811 48.3089 216.843C47.7825 216.876 47.299 216.908 46.8172 216.918C45.8675 216.936 44.992 216.862 44.0879 216.529L43.398 218.407ZM49.951 218.78C49.9166 218.78 49.8251 218.777 49.7082 218.741C49.5886 218.703 49.385 218.61 49.2272 218.39C48.8836 217.911 49.1321 217.445 49.1447 217.421C49.192 217.329 49.2374 217.287 49.2212 217.304C49.2154 217.31 49.1967 217.329 49.1605 217.36C49.0041 217.496 48.7574 217.666 48.637 217.737L49.6545 219.459C49.8636 219.335 50.2108 219.097 50.4703 218.872C50.5381 218.813 50.6122 218.745 50.6812 218.671C50.7398 218.608 50.842 218.493 50.9211 218.34C50.9656 218.254 51.2209 217.738 50.8523 217.224C50.682 216.987 50.4579 216.88 50.309 216.833C50.1628 216.787 50.0332 216.78 49.951 216.78V218.78ZM48.637 217.737C46.9608 218.728 45.2162 219.912 43.7842 221.363L45.2082 222.768C46.4645 221.494 48.0407 220.413 49.6545 219.459L48.637 217.737ZM43.7842 221.363C39.3801 225.829 37.4181 231.832 37.4181 237.858H39.4181C39.4181 232.254 41.2403 226.791 45.2082 222.768L43.7842 221.363ZM37.4181 237.858C37.4181 239.036 37.3997 240.757 38.6272 242.053L40.0791 240.677C39.4798 240.045 39.4181 239.165 39.4181 237.858H37.4181ZM38.6272 242.053C38.7324 242.164 38.7969 242.238 38.8329 242.282C38.8902 242.354 38.8376 242.304 38.7903 242.186C38.7819 242.166 38.6509 241.869 38.7854 241.505C38.8681 241.28 39.0285 241.097 39.2323 240.984C39.4138 240.884 39.5814 240.866 39.6743 240.863C39.8459 240.859 39.9678 240.903 39.9833 240.909C40.0032 240.916 40.0172 240.922 40.0243 240.925C40.0281 240.926 40.031 240.928 40.0328 240.928C40.0345 240.929 40.0355 240.93 40.0357 240.93C40.0358 240.93 40.0336 240.929 40.0289 240.926C40.0243 240.924 40.018 240.92 40.01 240.916C39.9938 240.906 39.9732 240.893 39.9482 240.877C39.8979 240.845 39.8379 240.804 39.7719 240.757C39.6388 240.662 39.4997 240.553 39.3912 240.461L38.0943 241.983C38.3756 242.223 38.831 242.564 39.1427 242.719C39.1897 242.743 39.2539 242.773 39.3278 242.798C39.3811 242.817 39.5341 242.868 39.7287 242.863C39.9435 242.857 40.4575 242.751 40.6618 242.197C40.8023 241.816 40.668 241.495 40.6462 241.441C40.572 241.256 40.4513 241.103 40.3901 241.027C40.3074 240.925 40.2028 240.808 40.0791 240.677L38.6272 242.053ZM39.3912 240.461C37.6615 238.987 35.9554 238.246 33.658 238.082L33.5155 240.077C35.3635 240.209 36.6703 240.77 38.0943 241.983L39.3912 240.461ZM33.658 238.082C30.9997 237.892 27.8782 237.758 25.1274 238.168L25.422 240.146C27.9374 239.772 30.8678 239.888 33.5155 240.077L33.658 238.082ZM25.1274 238.168C20.537 238.852 16.7855 242.141 13.6933 244.758L14.9852 246.284C18.2012 243.563 21.5043 240.73 25.422 240.146L25.1274 238.168ZM13.6933 244.758C13.6125 244.826 13.2503 245.126 12.9376 245.367C12.7726 245.495 12.6563 245.579 12.6044 245.611C12.5932 245.618 12.6038 245.611 12.6293 245.598C12.6421 245.592 12.6719 245.578 12.7138 245.563C12.7456 245.551 12.8402 245.519 12.9694 245.511C13.0742 245.504 13.4239 245.5 13.7221 245.792C14.0432 246.106 14.0308 246.487 14.0118 246.629C13.992 246.778 13.9422 246.884 13.9264 246.916C13.9049 246.961 13.8853 246.991 13.8775 247.003L12.2035 245.909C12.1834 245.94 12.1545 245.987 12.1263 246.045C12.104 246.091 12.0504 246.207 12.0294 246.365C12.0093 246.516 11.9984 246.903 12.3234 247.221C12.6256 247.517 12.9817 247.514 13.0953 247.507C13.3236 247.492 13.497 247.4 13.5143 247.392C13.5745 247.362 13.6277 247.33 13.6658 247.306C13.811 247.215 13.9982 247.075 14.1602 246.95C14.5016 246.686 14.8874 246.367 14.9852 246.284L13.6933 244.758ZM13.8775 247.003C14.8138 245.571 15.9574 243.932 16.3588 241.925L14.3977 241.533C14.0876 243.083 13.2044 244.378 12.2035 245.909L13.8775 247.003ZM16.3588 241.925C18.0115 233.662 11.1596 227.32 3.95552 225.941L3.57938 227.905C10.1527 229.164 15.7506 234.768 14.3977 241.533L16.3588 241.925ZM3.95552 225.941C2.94629 225.748 2.01029 225.691 1.06957 225.639L0.958632 227.636C1.90421 227.688 2.71725 227.74 3.57938 227.905L3.95552 225.941ZM1.06957 225.639C1.13138 225.642 1.44468 225.66 1.71136 225.928C2.06229 226.282 2.0175 226.715 1.95849 226.911C1.90692 227.083 1.82117 227.194 1.79922 227.222C1.76571 227.266 1.73706 227.294 1.72594 227.305C1.69438 227.336 1.68988 227.334 1.75846 227.286C1.87103 227.205 2.05371 227.087 2.26962 226.951C2.65469 226.709 3.20223 226.38 3.32211 226.3L2.21271 224.636C2.2128 224.636 2.21203 224.637 2.2102 224.638C2.20841 224.639 2.20596 224.641 2.20276 224.643C2.1963 224.647 2.18789 224.652 2.17731 224.659C2.15604 224.672 2.12902 224.689 2.09623 224.709C2.03043 224.75 1.9479 224.8 1.8524 224.859C1.66351 224.974 1.4289 225.118 1.20609 225.257C0.988053 225.394 0.76226 225.54 0.598154 225.657C0.528393 225.706 0.418494 225.786 0.327769 225.875C0.301854 225.9 0.261311 225.942 0.218992 225.997C0.188237 226.036 0.0967848 226.157 0.0428073 226.337C-0.0186021 226.542 -0.0624936 226.981 0.292859 227.338C0.563951 227.611 0.885181 227.632 0.958632 227.636L1.06957 225.639ZM3.32211 226.3C4.79585 225.318 5.9437 224.171 6.71738 222.776C7.49267 221.379 7.85847 219.794 7.85847 217.988H5.85847C5.85847 219.515 5.55208 220.754 4.9685 221.806C4.38333 222.861 3.48564 223.788 2.21271 224.636L3.32211 226.3ZM7.85847 217.988C7.85847 215.828 7.90717 213.861 7.03854 211.602L5.17185 212.32C5.88502 214.175 5.85847 215.762 5.85847 217.988H7.85847ZM7.03854 211.602C6.76763 210.898 6.29585 210.029 5.70063 209.291C5.13479 208.59 4.30725 207.821 3.28247 207.65L2.95368 209.623C3.23053 209.669 3.66018 209.948 4.14431 210.548C4.59907 211.111 4.97004 211.796 5.17185 212.32L7.03854 211.602Z" fill="#FF9900"/>
<path d="M293.686 260.958C307.963 262.206 321.552 263.314 335.765 261.893" stroke="#FF9900" stroke-width="2" stroke-linecap="round"/>
<path d="M285.737 274.517C294.586 280.905 303.366 288.104 313.323 292.751" stroke="#FF9900" stroke-width="2" stroke-linecap="round"/>
<path d="M138.927 322.674C137.012 331.233 135.214 339.848 133.316 348.389" stroke="#FF9900" stroke-width="2"/>
<path d="M116.484 316.128C106.077 328.559 95.9761 341.153 86.0938 354" stroke="#FF9900" stroke-width="2"/>
<path d="M84.2238 296.491C77.5095 299.739 70.8135 303.022 64.1191 306.31" stroke="#FF9900" stroke-width="2"/>
<path d="M189.423 102.926C188.125 93.6124 186.353 84.2562 185.683 74.8728" stroke="#FF9900" stroke-width="2"/>
<path d="M204.852 108.536C211.099 96.7796 216.554 85.0063 221.268 72.5871C223.407 66.9507 225.523 61.2998 227.761 55.7034" stroke="#FF9900" stroke-width="2"/>
<path d="M227.294 100.588C230.835 98.0003 234.406 95.5346 238.048 93.1072" stroke="#FF9900" stroke-width="2"/>
<path d="M327.35 273.974C335.759 273.089 343.216 271.17 349.038 266.007C356.709 259.204 359.971 249.306 361.431 239.45" stroke="#FF9900" stroke-width="2"/>
<path d="M372.053 281.941L371.39 281.193L372.053 281.941ZM359.113 307.466C359.032 308.013 359.41 308.521 359.956 308.602C360.502 308.683 361.011 308.306 361.092 307.759L359.113 307.466ZM393.637 272.98C385.159 273.872 377.447 275.822 371.39 281.193L372.717 282.689C378.303 277.736 385.504 275.847 393.846 274.969L393.637 272.98ZM371.39 281.193C363.456 288.229 360.586 297.526 359.113 307.466L361.092 307.759C362.539 297.988 365.308 289.26 372.717 282.689L371.39 281.193Z" fill="#FF9900"/>
<path d="M393.741 273.974C386.29 273.089 379.682 271.17 374.524 266.007C367.727 259.204 362.724 249.306 361.43 239.45" stroke="#FF9900" stroke-width="2"/>
<path d="M327.35 273.974C334.801 274.859 341.408 276.779 346.567 281.941C353.364 288.744 358.809 298.2 360.103 308.055" stroke="#FF9900" stroke-width="2"/>
<path d="M371.3 225.687C374.781 225.32 377.867 224.526 380.277 222.389C383.452 219.573 384.802 215.476 385.406 211.397" stroke="#FF9900" stroke-width="2"/>
<path d="M398.779 225.687C395.299 226.053 392.212 226.848 389.803 228.984C386.627 231.8 385.46 235.531 384.856 239.61" stroke="#FF9900" stroke-width="2"/>
<path d="M398.779 225.687C395.695 225.32 392.96 224.526 390.825 222.389C388.012 219.573 385.941 215.476 385.406 211.397" stroke="#FF9900" stroke-width="2"/>
<path d="M371.3 225.687C374.384 226.053 377.119 226.848 379.254 228.984C382.067 231.8 384.321 235.714 384.857 239.793" stroke="#FF9900" stroke-width="2"/>
<path d="M91.7041 202.982C117.419 193.631 140.329 184.747 161.837 177.266" stroke="#FF9900" stroke-width="2"/>
</svg>
