<svg width="230" height="79" viewBox="0 0 230 79" fill="none" xmlns="http://www.w3.org/2000/svg">
<g clip-path="url(#clip0_167_99)">
<path d="M95.0502 73.6163C92.7869 72.2725 90.5236 70.9244 88.256 69.5807C90.3183 68.5481 92.1228 66.984 92.3718 64.5773C92.5991 62.3392 90.9868 59.6992 88.6011 59.4227C86.1281 59.1332 84.5683 61.2028 84.0483 63.3502C82.9516 67.874 83.7949 73.2749 83.8124 77.8938C83.8168 79.3671 86.1412 79.3715 86.1369 77.8938C86.1281 75.5865 86.1063 73.2749 86.0932 70.9677C88.6885 72.5102 91.2839 74.0527 93.8793 75.5951C95.1638 76.3599 96.3304 74.3767 95.0502 73.6163ZM86.198 64.6897C86.4558 63.0435 86.3422 62.633 88.2079 62.6892C89.6498 62.2528 90.1391 62.7324 89.6673 64.1236C90.0037 65.1174 89.7153 65.8606 88.8109 66.3445C88.0244 67.2432 87.1462 67.671 86.0888 68.0512C86.0888 67.6796 86.0888 67.308 86.0888 66.9321C86.0888 66.176 86.0801 65.4415 86.198 64.6897Z" fill="#0D0D0D"/>
<path d="M103.234 62.1447C103.88 66.5561 104.051 70.9719 103.793 75.4222C103.705 76.8956 106.03 76.8913 106.117 75.4222C106.388 70.7602 106.157 66.1586 105.475 61.5398C105.261 60.088 103.024 60.7059 103.234 62.149V62.1447Z" fill="#0D0D0D"/>
<path d="M123.738 65.7395C122.414 65.0612 121.239 67.0357 122.567 67.7184C124.118 68.5134 128.518 72.7953 125.722 74.5538C124.756 75.163 121.877 74.8908 120.841 74.692C119.351 74.4026 117.936 73.7761 117.036 72.5274C115.437 70.3022 115.716 67.0271 117.652 65.0741C119.828 62.8792 123.341 62.6934 126.05 63.9335C127.395 64.5513 128.579 62.5768 127.221 61.9546C123.258 60.1399 118.106 60.5719 115.323 64.2316C112.911 67.403 113.112 72.3286 116.184 75.0247C117.8 76.4463 119.994 77.0166 122.113 77.1203C123.913 77.2067 126.871 77.2499 128.121 75.6772C130.768 72.3502 126.644 67.2215 123.734 65.7352L123.738 65.7395Z" fill="#0D0D0D"/>
<path d="M150.636 75.3186C147.966 71.3133 145.297 67.3123 142.627 63.307C142.129 62.5552 141.128 62.5854 140.621 63.307C137.982 67.079 136.742 71.4645 137.008 76.0401C137.095 77.5048 139.416 77.5135 139.333 76.0401C139.245 74.5235 139.333 73.0545 139.59 71.6287H145.043C145.161 71.6287 145.27 71.6114 145.371 71.5855C146.459 73.2144 147.542 74.8433 148.63 76.4722C149.447 77.6993 151.462 76.5543 150.636 75.3186ZM140.167 69.3387C140.543 68.1937 141.037 67.0833 141.648 66.0074C142.387 67.1178 143.129 68.2283 143.868 69.3387H140.167Z" fill="#0D0D0D"/>
<path d="M52.7593 43.9764H45.2878L39.9791 19.5081L26.3818 43.4017L12.7802 19.5081L7.4715 43.9764H0L9.57314 0.691406L26.3818 30.2408L43.1905 0.691406L52.7593 43.9764Z" fill="#0D0D0D"/>
<path d="M56.5518 29.8388C56.5518 20.7783 63.145 14.5435 72.0759 14.5435C75.4621 14.5435 78.8439 15.4076 81.4743 17.084V23.6645C79.0231 21.7591 75.8116 20.6616 72.7182 20.6616C67.1735 20.6616 63.499 24.183 63.499 29.7221C63.499 35.2613 67.0599 38.5537 72.6046 38.5537C75.7548 38.5537 78.8483 37.5729 81.649 35.5508V42.1312C78.9051 43.8034 75.4621 44.6718 72.0759 44.6718C62.6775 44.6718 56.5518 38.6703 56.5518 29.8388Z" fill="#0D0D0D"/>
<path d="M88.2988 22.6233C88.2988 9.35003 97.8108 0 111.238 0C116.258 0 121.16 1.27029 125.071 3.69421V11.195C121.278 8.25257 116.315 6.57613 111.53 6.57613C102.193 6.57613 95.7135 13.1566 95.7135 22.6794C95.7135 32.2023 101.9 38.0871 111.474 38.0871C116.319 38.0871 121.396 36.415 125.246 33.4683V40.969C121.335 43.393 116.376 44.6633 111.356 44.6633C97.4656 44.6633 88.3032 35.8922 88.3032 22.6146" fill="#0D0D0D"/>
<path d="M154.249 29.6054C154.249 24.2391 150.806 20.5449 145.843 20.5449C140.879 20.5449 137.44 24.2391 137.44 29.6054C137.44 34.9717 140.883 38.666 145.843 38.666C150.802 38.666 154.249 34.9717 154.249 29.6054ZM154.773 15.4637H161.135V43.9761H154.773V39.9362C152.672 42.9953 149.29 44.6674 144.969 44.6674C136.623 44.6674 130.493 38.3203 130.493 29.7177C130.493 21.1152 136.68 14.5391 145.143 14.5391C149.229 14.5391 152.729 16.2717 154.773 19.1579V15.4637Z" fill="#0D0D0D"/>
<path d="M195.745 26.3174V43.9762H188.916V27.5315C188.916 23.146 186.757 20.5493 183.14 20.5493C178.469 20.5493 175.668 24.4163 175.668 30.9363V43.9805H168.839V15.4681H175.319V19.1623C177.245 16.1637 180.396 14.5435 184.481 14.5435C191.192 14.5435 195.745 19.2746 195.745 26.3174Z" fill="#0D0D0D"/>
<path d="M230 26.3174V43.9762H223.171V27.5315C223.171 23.146 221.012 20.5493 217.394 20.5493C212.724 20.5493 209.923 24.4163 209.923 30.9363V43.9805H203.094V15.4681H209.573V19.1623C211.5 16.1637 214.651 14.5435 218.736 14.5435C225.447 14.5435 230 19.2746 230 26.3174Z" fill="#0D0D0D"/>
</g>
<defs>
<clipPath id="clip0_167_99">
<rect width="230" height="79" fill="white"/>
</clipPath>
</defs>
</svg>
